<?xml version="1.0" encoding="UTF-8" standalone="no"?>
<!-- Created with Inkscape (http://www.inkscape.org/) -->

<svg
   width="224.3143mm"
   height="224.31384mm"
   viewBox="0 0 224.3143 224.31384"
   version="1.1"
   id="svg5"
   inkscape:version="1.1.1 (3bf5ae0d25, 2021-09-20)"
   sodipodi:docname="William small gear.svg"
   xmlns:inkscape="http://www.inkscape.org/namespaces/inkscape"
   xmlns:sodipodi="http://sodipodi.sourceforge.net/DTD/sodipodi-0.dtd"
   xmlns="http://www.w3.org/2000/svg"
   xmlns:svg="http://www.w3.org/2000/svg">
  <sodipodi:namedview
     id="namedview7"
     pagecolor="#ffffff"
     bordercolor="#666666"
     borderopacity="1.0"
     inkscape:pageshadow="2"
     inkscape:pageopacity="0.0"
     inkscape:pagecheckerboard="0"
     inkscape:document-units="mm"
     showgrid="false"
     inkscape:snap-object-midpoints="true"
     inkscape:snap-smooth-nodes="true"
     inkscape:object-paths="true"
     inkscape:zoom="0.32"
     inkscape:cx="-135.9375"
     inkscape:cy="417.1875"
     inkscape:window-width="1920"
     inkscape:window-height="1017"
     inkscape:window-x="2552"
     inkscape:window-y="154"
     inkscape:window-maximized="1"
     inkscape:current-layer="layer1" />
  <defs
     id="defs2">
    <marker
       id="DistanceX"
       orient="auto"
       refX="0"
       refY="0"
       style="overflow:visible">
      <path
         d="M 3,-3 -3,3 M 0,-5 V 5"
         style="stroke:#000000;stroke-width:0.5"
         id="path826" />
    </marker>
    <pattern
       id="Hatch"
       patternUnits="userSpaceOnUse"
       width="8"
       height="8"
       x="0"
       y="0">
      <path
         d="M8 4 l-4,4"
         stroke="#000000"
         stroke-width="0.25"
         linecap="square"
         id="path829" />
      <path
         d="M6 2 l-4,4"
         stroke="#000000"
         stroke-width="0.25"
         linecap="square"
         id="path831" />
      <path
         d="M4 0 l-4,4"
         stroke="#000000"
         stroke-width="0.25"
         linecap="square"
         id="path833" />
    </pattern>
    <symbol
       id="*Model_Space" />
    <symbol
       id="*Paper_Space" />
    <symbol
       id="*Paper_Space0" />
    <marker
       id="DistanceX-5"
       orient="auto"
       refX="0"
       refY="0"
       style="overflow:visible">
      <path
         d="M 3,-3 -3,3 M 0,-5 V 5"
         style="stroke:#000000;stroke-width:0.5"
         id="path2914" />
    </marker>
    <pattern
       id="Hatch-8"
       patternUnits="userSpaceOnUse"
       width="8"
       height="8"
       x="0"
       y="0">
      <path
         d="M8 4 l-4,4"
         stroke="#000000"
         stroke-width="0.25"
         linecap="square"
         id="path2917" />
      <path
         d="M6 2 l-4,4"
         stroke="#000000"
         stroke-width="0.25"
         linecap="square"
         id="path2919" />
      <path
         d="M4 0 l-4,4"
         stroke="#000000"
         stroke-width="0.25"
         linecap="square"
         id="path2921" />
    </pattern>
    <symbol
       id="*Model_Space-6" />
    <symbol
       id="*Paper_Space-8" />
    <symbol
       id="*Paper_Space0-0" />
  </defs>
  <g
     inkscape:label="Layer 1"
     inkscape:groupmode="layer"
     id="layer1"
     transform="translate(-86.15771,-48.537716)">
    <path
       style="fill:none;stroke:#000000;stroke-width:0.238125;stroke-linecap:round"
       d="m 198.31486,48.656789 a 10.808899,10.808899 0 0 0 -10.04951,6.82904 12.700449,12.700449 0 0 1 -20.92793,4.16254 10.808899,10.808899 0 0 0 -7.47241,-3.28197 10.808899,10.808899 0 0 0 -11.09648,10.97349 12.700449,12.700449 0 0 1 -17.74155,11.85457 10.808899,10.808899 0 0 0 -4.0628,-0.88625 10.808899,10.808899 0 0 0 -10.14925,15.0983 12.700449,12.700449 0 0 1 -11.85458,17.742071 10.808899,10.808899 0 0 0 -7.691524,18.56889 12.700449,12.700449 0 0 1 -4.163047,20.92741 10.808899,10.808899 0 0 0 0,20.09903 12.700449,12.700449 0 0 1 4.163047,20.92792 10.808899,10.808899 0 0 0 7.691524,18.5689 12.700449,12.700449 0 0 1 0.35657,-5.3e-4 12.700449,12.700449 0 0 1 11.49801,17.74207 10.808899,10.808899 0 0 0 14.21205,14.21205 12.700449,12.700449 0 0 1 5.2095,-1.04283 12.700449,12.700449 0 0 1 12.53205,12.8974 10.808899,10.808899 0 0 0 18.56889,7.69154 12.700449,12.700449 0 0 1 8.92659,-3.85973 12.700449,12.700449 0 0 1 12.00134,8.02279 10.808899,10.808899 0 0 0 20.09903,0 12.700449,12.700449 0 0 1 12.00133,-8.02279 12.700449,12.700449 0 0 1 8.92659,3.85973 10.808899,10.808899 0 0 0 18.56889,-7.69154 12.700449,12.700449 0 0 1 12.51087,-12.89689 12.700449,12.700449 0 0 1 5.23068,1.04232 10.808899,10.808899 0 0 0 14.21206,-14.21205 12.700449,12.700449 0 0 1 11.85457,-17.74155 10.808899,10.808899 0 0 0 7.69152,-18.5689 12.700449,12.700449 0 0 1 4.16305,-20.92792 10.808899,10.808899 0 0 0 0,-20.09903 12.700449,12.700449 0 0 1 -4.16305,-20.92741 10.808899,10.808899 0 0 0 -7.69152,-18.56889 12.700449,12.700449 0 0 1 -11.85457,-17.742071 10.808899,10.808899 0 0 0 -10.10326,-15.09882 10.808899,10.808899 0 0 0 -4.1088,0.88677 12.700449,12.700449 0 0 1 -17.74155,-11.85457 10.808899,10.808899 0 0 0 -10.86394,-10.97763 10.808899,10.808899 0 0 0 -7.70495,3.28611 12.700449,12.700449 0 0 1 -20.92792,-4.16254 10.808899,10.808899 0 0 0 -10.04952,-6.82904 z"
       id="path2933" />
  </g>
</svg>
