<?xml version="1.0" standalone="no"?>
<!DOCTYPE svg PUBLIC "-//W3C//DTD SVG 1.0//EN"
"http://www.w3.org/TR/2001/REC-SVG-20010904/DTD/svg10.dtd">

<svg width="1193.9127668012648px" height="1199.9975807501974px" viewBox="0 0 1193.9127668012648 1199.9975807501974" version="1.1" xmlns="http://www.w3.org/2000/svg">
  <defs>
    <filter id="Gamma">
      <feComponentTransfer>
        <feFuncR type="gamma" amplitude="1" exponent="0.3" offset="0" />
        <feFuncG type="gamma" amplitude="1" exponent="0.3" offset="0" />
        <feFuncB type="gamma" amplitude="1" exponent="0.3" offset="0" />
      </feComponentTransfer>
    </filter>
  </defs>

 <path d=" M 986.80 100.00 L 988.33 100.24 L 988.41 102.01 L 988.77 103.74 L 989.40 105.40 L 990.30 106.92 L 991.44 108.28 L 992.78 109.43 L 994.29 110.36 L 995.92 111.07 L 997.46 111.95 L 998.87 113.01 L 1000.12 114.27 L 1001.17 115.70 L 1002.02 117.25 L 1002.65 118.91 L 1003.04 120.64 L 1003.18 122.40 L 1003.07 124.17 L 1002.73 125.91 L 1002.14 127.58 L 1001.33 129.16 L 1000.31 130.60 L 999.10 131.90 L 997.97 133.26 L 997.08 134.79 L 996.46 136.45 L 996.11 138.19 L 996.05 139.96 L 996.28 141.71 L 996.80 143.41 L 997.58 145.00 L 998.61 146.44 L 999.87 147.69 L 1001.31 148.72 L 1002.90 149.50 L 1004.60 150.00 L 1006.35 150.23 L 1008.12 150.27 L 1009.88 150.52 L 1011.58 151.01 L 1013.20 151.74 L 1014.70 152.68 L 1016.05 153.82 L 1017.24 155.14 L 1018.22 156.61 L 1018.99 158.21 L 1019.54 159.89 L 1019.84 161.64 L 1019.90 163.41 L 1019.71 165.17 L 1019.28 166.89 L 1018.64 168.54 L 1018.17 170.25 L 1017.99 172.01 L 1018.09 173.78 L 1018.48 175.51 L 1019.14 177.15 L 1020.07 178.66 L 1021.23 180.00 L 1022.59 181.13 L 1024.12 182.02 L 1025.77 182.65 L 1027.51 183.00 L 1029.28 183.07 L 1031.04 182.84 L 1032.73 182.34 L 1034.39 181.72 L 1036.12 181.31 L 1037.88 181.15 L 1039.65 181.24 L 1041.39 181.58 L 1043.07 182.15 L 1044.65 182.95 L 1046.10 183.97 L 1047.40 185.18 L 1048.51 186.55 L 1049.43 188.07 L 1050.12 189.70 L 1050.59 191.41 L 1050.80 193.17 L 1050.85 194.94 L 1051.11 196.69 L 1051.65 198.38 L 1052.47 199.95 L 1053.52 201.37 L 1054.80 202.60 L 1056.26 203.60 L 1057.87 204.35 L 1059.57 204.83 L 1061.33 205.02 L 1063.10 204.92 L 1064.83 204.54 L 1066.47 203.88 L 1067.99 202.96 L 1069.33 201.80 L 1070.64 200.62 L 1072.10 199.61 L 1073.69 198.83 L 1075.37 198.27 L 1077.12 197.96 L 1078.89 197.89 L 1080.65 198.07 L 1082.37 198.48 L 1084.02 199.14 L 1085.56 200.01 L 1086.96 201.10 L 1088.19 202.37 L 1089.24 203.80 L 1090.08 205.35 L 1090.81 206.97 L 1091.76 208.46 L 1092.95 209.78 L 1093.91 211.09 L 1093.76 212.85 L 1093.56 214.61 L 1093.35 216.38 L 1093.15 218.14 L 1092.94 219.90 L 1092.73 221.66 L 1092.51 223.42 L 1092.29 225.18 L 1092.08 226.94 L 1091.85 228.70 L 1091.62 230.46 L 1091.38 232.21 L 1091.15 233.97 L 1090.92 235.73 L 1090.68 237.49 L 1090.43 239.24 L 1090.19 241.00 L 1089.68 244.51 L 1089.43 246.26 L 1089.17 248.02 L 1088.91 249.77 L 1088.65 251.53 L 1088.38 253.28 L 1088.11 255.03 L 1087.83 256.78 L 1087.56 258.53 L 1087.28 260.29 L 1086.99 262.04 L 1086.70 263.78 L 1086.41 265.53 L 1086.12 267.28 L 1085.83 269.03 L 1085.53 270.78 L 1085.23 272.53 L 1084.92 274.27 L 1084.61 276.02 L 1084.30 277.77 L 1083.98 279.51 L 1083.66 281.25 L 1083.34 283.00 L 1083.02 284.74 L 1082.69 286.48 L 1082.36 288.23 L 1082.03 289.97 L 1081.70 291.71 L 1081.36 293.45 L 1081.01 295.19 L 1080.67 296.93 L 1080.32 298.67 L 1079.97 300.41 L 1079.61 302.14 L 1079.25 303.88 L 1078.89 305.62 L 1078.52 307.35 L 1078.16 309.09 L 1077.79 310.82 L 1077.42 312.55 L 1077.04 314.29 L 1076.66 316.02 L 1076.28 317.75 L 1075.89 319.48 L 1075.50 321.21 L 1075.11 322.94 L 1074.71 324.67 L 1074.31 326.40 L 1073.92 328.13 L 1073.51 329.85 L 1073.10 331.58 L 1072.69 333.30 L 1072.28 335.03 L 1071.86 336.75 L 1071.44 338.47 L 1071.02 340.19 L 1070.60 341.92 L 1070.16 343.64 L 1069.73 345.36 L 1069.30 347.08 L 1068.86 348.79 L 1068.41 350.51 L 1067.97 352.23 L 1067.53 353.94 L 1067.07 355.66 L 1066.62 357.37 L 1066.16 359.09 L 1065.70 360.80 L 1065.24 362.51 L 1064.78 364.22 L 1064.31 365.93 L 1063.83 367.64 L 1063.36 369.35 L 1062.88 371.06 L 1062.40 372.76 L 1061.91 374.47 L 1061.43 376.17 L 1060.94 377.88 L 1060.44 379.58 L 1059.95 381.28 L 1059.45 382.98 L 1058.95 384.69 L 1058.44 386.39 L 1057.93 388.08 L 1057.42 389.78 L 1056.91 391.48 L 1056.39 393.18 L 1055.87 394.87 L 1055.34 396.56 L 1054.82 398.26 L 1054.29 399.95 L 1053.75 401.64 L 1053.22 403.33 L 1052.68 405.02 L 1052.14 406.71 L 1051.59 408.40 L 1051.04 410.08 L 1050.49 411.77 L 1049.94 413.45 L 1049.38 415.14 L 1048.82 416.82 L 1048.26 418.50 L 1047.69 420.18 L 1047.13 421.86 L 1046.56 423.54 L 1045.98 425.22 L 1045.40 426.89 L 1044.82 428.57 L 1044.24 430.24 L 1043.65 431.92 L 1043.06 433.59 L 1042.47 435.26 L 1041.87 436.93 L 1041.27 438.60 L 1040.67 440.27 L 1040.07 441.93 L 1039.46 443.60 L 1038.85 445.26 L 1037.61 448.59 L 1036.99 450.25 L 1036.37 451.91 L 1035.75 453.57 L 1035.12 455.23 L 1034.49 456.89 L 1033.86 458.54 L 1033.22 460.20 L 1032.58 461.85 L 1031.93 463.50 L 1031.29 465.15 L 1030.64 466.80 L 1029.99 468.45 L 1029.33 470.10 L 1028.67 471.75 L 1028.01 473.39 L 1027.35 475.04 L 1026.68 476.68 L 1025.34 479.96 L 1024.66 481.60 L 1023.98 483.24 L 1023.30 484.88 L 1022.62 486.51 L 1021.93 488.15 L 1021.24 489.78 L 1020.55 491.41 L 1019.85 493.05 L 1019.15 494.67 L 1018.45 496.30 L 1017.75 497.93 L 1017.04 499.56 L 1016.32 501.18 L 1015.61 502.80 L 1014.90 504.43 L 1014.18 506.05 L 1013.45 507.67 L 1012.73 509.28 L 1012.00 510.90 L 1011.27 512.52 L 1010.53 514.13 L 1009.80 515.74 L 1009.06 517.36 L 1008.32 518.97 L 1007.57 520.57 L 1006.82 522.18 L 1006.07 523.79 L 1005.32 525.39 L 1004.56 527.00 L 1003.81 528.60 L 1003.04 530.20 L 1002.28 531.80 L 1001.51 533.40 L 1000.74 535.00 L 999.97 536.59 L 999.19 538.19 L 998.41 539.78 L 997.63 541.37 L 996.84 542.96 L 996.05 544.55 L 995.26 546.14 L 994.47 547.72 L 993.67 549.31 L 992.87 550.89 L 992.07 552.47 L 991.27 554.05 L 990.46 555.63 L 989.65 557.21 L 988.83 558.78 L 988.02 560.36 L 987.20 561.93 L 986.38 563.50 L 985.56 565.07 L 984.73 566.64 L 983.90 568.21 L 983.06 569.77 L 982.23 571.33 L 981.39 572.90 L 980.54 574.46 L 979.70 576.02 L 978.86 577.58 L 978.01 579.13 L 977.16 580.69 L 976.30 582.24 L 975.44 583.79 L 974.58 585.34 L 973.72 586.89 L 972.85 588.44 L 971.98 589.99 L 971.11 591.53 L 970.24 593.07 L 969.36 594.61 L 968.48 596.15 L 967.60 597.69 L 966.71 599.23 L 965.83 600.76 L 964.93 602.30 L 964.04 603.83 L 963.15 605.36 L 962.25 606.89 L 961.34 608.41 L 960.44 609.94 L 959.54 611.46 L 958.63 612.99 L 957.72 614.51 L 956.80 616.03 L 955.88 617.54 L 954.96 619.06 L 954.03 620.57 L 953.11 622.08 L 952.18 623.60 L 951.25 625.10 L 950.31 626.61 L 949.38 628.12 L 948.44 629.62 L 947.50 631.13 L 946.56 632.62 L 945.61 634.13 L 944.66 635.62 L 943.70 637.12 L 942.75 638.61 L 941.79 640.10 L 940.83 641.59 L 939.87 643.08 L 938.91 644.57 L 937.94 646.06 L 936.96 647.54 L 935.99 649.02 L 935.02 650.51 L 934.04 651.98 L 933.06 653.46 L 932.07 654.94 L 931.08 656.41 L 930.10 657.88 L 929.11 659.35 L 928.11 660.82 L 927.11 662.28 L 926.11 663.75 L 925.11 665.21 L 924.10 666.67 L 923.10 668.13 L 922.09 669.59 L 921.07 671.04 L 920.06 672.50 L 919.04 673.95 L 917.00 676.85 L 915.97 678.30 L 914.95 679.74 L 913.91 681.18 L 911.85 684.06 L 910.81 685.50 L 909.77 686.94 L 908.73 688.37 L 907.68 689.81 L 906.63 691.23 L 905.58 692.66 L 904.53 694.09 L 903.47 695.52 L 902.42 696.94 L 901.35 698.36 L 900.29 699.78 L 899.23 701.19 L 898.16 702.61 L 897.09 704.02 L 896.01 705.43 L 894.94 706.84 L 893.86 708.25 L 892.78 709.66 L 891.69 711.06 L 889.52 713.86 L 888.43 715.26 L 887.34 716.66 L 886.24 718.05 L 885.14 719.44 L 884.04 720.83 L 882.94 722.22 L 881.83 723.61 L 880.73 725.00 L 879.62 726.38 L 878.50 727.76 L 877.39 729.13 L 876.27 730.51 L 875.15 731.89 L 874.03 733.26 L 872.90 734.63 L 871.77 736.00 L 870.64 737.36 L 869.52 738.73 L 868.38 740.10 L 867.24 741.46 L 866.11 742.82 L 864.96 744.17 L 863.81 745.52 L 862.67 746.88 L 861.52 748.23 L 860.37 749.58 L 859.21 750.92 L 858.06 752.27 L 856.90 753.61 L 855.74 754.95 L 854.58 756.29 L 853.41 757.63 L 852.24 758.96 L 851.07 760.29 L 849.90 761.62 L 848.73 762.95 L 847.55 764.28 L 846.37 765.60 L 845.19 766.92 L 844.00 768.24 L 842.81 769.56 L 841.63 770.87 L 840.44 772.19 L 839.24 773.50 L 838.05 774.81 L 836.85 776.12 L 835.65 777.42 L 834.45 778.73 L 833.24 780.03 L 832.04 781.33 L 830.82 782.62 L 829.61 783.92 L 828.40 785.21 L 827.18 786.50 L 825.97 787.79 L 824.74 789.07 L 823.52 790.36 L 822.29 791.64 L 821.07 792.92 L 819.84 794.20 L 818.60 795.47 L 817.37 796.75 L 816.13 798.02 L 814.89 799.28 L 813.65 800.55 L 812.41 801.81 L 811.16 803.07 L 809.91 804.34 L 808.67 805.59 L 807.41 806.85 L 806.16 808.10 L 804.90 809.35 L 803.64 810.60 L 802.38 811.85 L 801.12 813.09 L 799.85 814.34 L 798.58 815.57 L 797.31 816.81 L 796.04 818.05 L 794.77 819.28 L 793.49 820.51 L 792.21 821.74 L 790.93 822.97 L 789.65 824.19 L 788.36 825.41 L 787.08 826.63 L 785.79 827.85 L 784.50 829.07 L 783.20 830.28 L 781.91 831.49 L 780.61 832.70 L 779.31 833.90 L 778.01 835.11 L 776.71 836.31 L 775.40 837.51 L 774.09 838.70 L 772.78 839.90 L 771.46 841.09 L 770.15 842.28 L 768.83 843.47 L 767.51 844.65 L 766.19 845.84 L 764.87 847.02 L 763.55 848.20 L 762.22 849.37 L 760.89 850.54 L 759.56 851.72 L 758.22 852.88 L 756.89 854.05 L 755.55 855.22 L 754.21 856.37 L 752.87 857.53 L 751.52 858.69 L 750.18 859.85 L 748.83 861.00 L 747.48 862.15 L 746.13 863.30 L 744.78 864.44 L 743.42 865.58 L 742.06 866.72 L 740.70 867.86 L 739.34 869.00 L 737.98 870.13 L 736.61 871.26 L 735.24 872.39 L 733.87 873.52 L 732.50 874.64 L 731.13 875.76 L 729.75 876.88 L 728.37 878.00 L 726.99 879.11 L 725.61 880.22 L 724.23 881.33 L 722.84 882.44 L 721.45 883.54 L 720.06 884.64 L 718.67 885.74 L 717.28 886.84 L 715.88 887.93 L 714.49 889.03 L 713.09 890.11 L 711.68 891.20 L 710.28 892.28 L 708.88 893.37 L 707.47 894.45 L 706.06 895.52 L 704.65 896.60 L 703.24 897.67 L 701.82 898.74 L 700.41 899.80 L 698.99 900.87 L 697.57 901.93 L 696.14 902.99 L 694.72 904.04 L 693.29 905.10 L 691.87 906.15 L 690.44 907.21 L 689.01 908.25 L 687.58 909.29 L 686.14 910.33 L 684.70 911.37 L 683.27 912.41 L 681.83 913.45 L 680.38 914.47 L 678.94 915.50 L 677.49 916.53 L 676.04 917.55 L 674.59 918.57 L 673.14 919.59 L 671.69 920.61 L 670.23 921.62 L 668.78 922.63 L 667.32 923.64 L 665.86 924.65 L 664.40 925.65 L 662.93 926.65 L 661.47 927.65 L 660.00 928.64 L 658.53 929.64 L 657.06 930.63 L 655.59 931.62 L 654.11 932.60 L 652.63 933.58 L 651.16 934.56 L 649.68 935.54 L 648.20 936.52 L 646.72 937.49 L 645.23 938.46 L 643.74 939.43 L 642.26 940.39 L 640.77 941.35 L 639.27 942.31 L 637.78 943.27 L 636.28 944.22 L 634.79 945.17 L 633.29 946.12 L 631.79 947.06 L 630.29 948.01 L 628.78 948.95 L 627.28 949.88 L 625.77 950.82 L 624.26 951.75 L 622.75 952.68 L 621.24 953.60 L 619.73 954.53 L 618.21 955.46 L 616.70 956.37 L 615.18 957.29 L 613.66 958.20 L 612.14 959.11 L 610.61 960.02 L 609.09 960.92 L 607.56 961.83 L 606.03 962.73 L 604.50 963.62 L 602.97 964.52 L 601.44 965.41 L 599.91 966.30 L 598.37 967.19 L 596.83 968.07 L 595.30 968.95 L 593.75 969.83 L 592.21 970.70 L 590.67 971.58 L 589.12 972.45 L 587.58 973.31 L 586.03 974.18 L 584.48 975.04 L 582.93 975.90 L 581.37 976.76 L 579.82 977.61 L 578.26 978.46 L 576.71 979.31 L 575.15 980.15 L 573.58 980.99 L 572.03 981.83 L 570.46 982.67 L 568.89 983.50 L 567.33 984.33 L 565.76 985.16 L 564.19 985.99 L 562.62 986.81 L 561.05 987.63 L 559.47 988.44 L 557.90 989.26 L 556.32 990.07 L 554.74 990.88 L 553.16 991.68 L 551.58 992.49 L 550.00 993.29 L 548.42 994.09 L 546.83 994.88 L 545.25 995.68 L 543.66 996.46 L 542.07 997.26 L 540.48 998.04 L 538.89 998.82 L 537.29 999.60 L 535.70 1000.37 L 534.10 1001.15 L 532.50 1001.91 L 530.91 1002.68 L 529.31 1003.44 L 527.70 1004.20 L 526.10 1004.96 L 524.50 1005.71 L 522.89 1006.47 L 521.28 1007.22 L 519.67 1007.96 L 518.06 1008.71 L 516.45 1009.45 L 514.84 1010.19 L 513.23 1010.92 L 511.61 1011.65 L 510.00 1012.38 L 508.38 1013.10 L 506.76 1013.83 L 505.14 1014.55 L 503.52 1015.27 L 501.89 1015.98 L 500.27 1016.69 L 498.64 1017.40 L 497.02 1018.11 L 495.39 1018.81 L 493.76 1019.51 L 492.13 1020.21 L 490.50 1020.91 L 488.86 1021.59 L 487.23 1022.28 L 485.60 1022.97 L 483.96 1023.65 L 482.32 1024.34 L 480.68 1025.01 L 479.04 1025.68 L 477.40 1026.35 L 475.76 1027.02 L 474.12 1027.69 L 472.47 1028.35 L 470.83 1029.01 L 469.18 1029.67 L 467.53 1030.32 L 465.88 1030.97 L 464.23 1031.61 L 462.58 1032.26 L 460.92 1032.90 L 459.27 1033.54 L 457.61 1034.18 L 455.96 1034.81 L 454.30 1035.44 L 452.64 1036.06 L 450.98 1036.69 L 449.32 1037.31 L 447.66 1037.93 L 445.99 1038.54 L 444.33 1039.16 L 442.67 1039.77 L 441.00 1040.37 L 439.33 1040.97 L 437.66 1041.57 L 435.99 1042.17 L 434.32 1042.76 L 432.65 1043.36 L 430.98 1043.95 L 429.30 1044.53 L 427.63 1045.11 L 425.95 1045.69 L 424.27 1046.26 L 422.60 1046.84 L 420.92 1047.41 L 419.24 1047.97 L 417.56 1048.54 L 415.88 1049.11 L 414.19 1049.66 L 412.51 1050.22 L 410.82 1050.76 L 409.14 1051.32 L 407.45 1051.86 L 405.76 1052.41 L 404.07 1052.95 L 402.38 1053.48 L 400.69 1054.02 L 399.00 1054.55 L 397.31 1055.08 L 395.61 1055.60 L 393.92 1056.12 L 392.22 1056.65 L 390.53 1057.16 L 388.83 1057.68 L 387.13 1058.18 L 385.43 1058.69 L 383.73 1059.19 L 382.03 1059.70 L 380.33 1060.19 L 378.63 1060.69 L 376.92 1061.17 L 375.22 1061.66 L 373.51 1062.15 L 371.81 1062.64 L 370.10 1063.11 L 368.39 1063.59 L 366.68 1064.06 L 364.97 1064.53 L 363.26 1065.00 L 361.55 1065.46 L 359.84 1065.93 L 358.12 1066.38 L 356.41 1066.84 L 354.70 1067.29 L 352.98 1067.74 L 351.26 1068.18 L 349.54 1068.62 L 347.83 1069.06 L 346.11 1069.50 L 344.39 1069.94 L 342.67 1070.37 L 340.95 1070.79 L 339.23 1071.21 L 337.50 1071.63 L 335.78 1072.05 L 334.06 1072.47 L 332.33 1072.88 L 330.61 1073.29 L 328.88 1073.70 L 327.15 1074.10 L 325.43 1074.50 L 323.70 1074.89 L 321.97 1075.29 L 320.24 1075.68 L 318.51 1076.07 L 316.78 1076.45 L 315.04 1076.83 L 313.31 1077.21 L 311.58 1077.59 L 309.85 1077.96 L 308.11 1078.33 L 306.38 1078.69 L 304.64 1079.05 L 302.90 1079.41 L 301.17 1079.77 L 299.43 1080.13 L 297.69 1080.47 L 295.95 1080.82 L 294.21 1081.16 L 292.47 1081.50 L 290.73 1081.85 L 288.99 1082.18 L 287.25 1082.51 L 285.50 1082.83 L 283.76 1083.16 L 282.02 1083.49 L 280.27 1083.80 L 278.53 1084.12 L 276.78 1084.43 L 275.04 1084.74 L 273.29 1085.05 L 271.54 1085.35 L 269.80 1085.65 L 268.05 1085.95 L 266.30 1086.24 L 264.55 1086.53 L 262.80 1086.82 L 261.05 1087.11 L 259.30 1087.39 L 257.55 1087.67 L 255.80 1087.94 L 254.04 1088.21 L 252.29 1088.48 L 250.54 1088.75 L 248.79 1089.02 L 247.03 1089.27 L 245.28 1089.53 L 243.52 1089.79 L 241.77 1090.04 L 240.01 1090.28 L 238.25 1090.53 L 236.50 1090.77 L 234.74 1091.01 L 232.98 1091.25 L 231.23 1091.48 L 229.47 1091.70 L 227.71 1091.93 L 225.95 1092.16 L 224.19 1092.37 L 222.43 1092.59 L 220.67 1092.80 L 218.91 1093.01 L 217.15 1093.22 L 215.38 1093.42 L 213.62 1093.63 L 211.86 1093.82 L 210.10 1094.01 L 208.34 1094.21 L 206.57 1094.39 L 204.81 1094.58 L 203.04 1094.76 L 201.28 1094.94 L 199.52 1095.11 L 197.75 1095.28 L 195.99 1095.46 L 194.22 1095.63 L 192.46 1095.79 L 190.69 1095.95 L 188.92 1096.11 L 187.16 1096.26 L 185.39 1096.41 L 183.62 1096.55 L 181.85 1096.70 L 180.09 1096.84 L 178.32 1096.99 L 176.55 1097.12 L 174.78 1097.25 L 173.01 1097.38 L 171.25 1097.51 L 169.48 1097.63 L 167.71 1097.75 L 165.94 1097.86 L 164.17 1097.98 L 162.40 1098.09 L 160.63 1098.19 L 158.86 1098.30 L 157.09 1098.40 L 155.32 1098.50 L 153.55 1098.60 L 151.78 1098.68 L 150.01 1098.78 L 148.23 1098.86 L 146.46 1098.94 L 144.69 1099.02 L 142.92 1099.10 L 141.15 1099.18 L 139.38 1099.24 L 137.60 1099.31 L 135.83 1099.38 L 134.06 1099.43 L 132.29 1099.49 L 130.52 1099.55 L 128.74 1099.60 L 126.97 1099.65 L 125.20 1099.69 L 123.42 1099.73 L 121.65 1099.77 L 119.88 1099.81 L 118.11 1099.84 L 116.33 1099.87 L 114.56 1099.89 L 112.79 1099.92 L 111.01 1099.94 L 109.24 1099.96 L 107.47 1099.97 L 105.69 1099.99 L 103.92 1099.99 L 102.15 1100.00 L 100.39 1099.82 L 100.05 1098.33 L 100.09 1048.29 L 100.42 1048.05 L 100.74 1047.80 L 101.05 1047.53 L 101.35 1047.25 L 101.64 1046.97 L 101.92 1046.67 L 102.19 1046.36 L 102.45 1046.04 L 102.69 1045.71 L 102.92 1045.37 L 103.14 1045.03 L 103.34 1044.67 L 103.54 1044.31 L 103.71 1043.94 L 103.88 1043.57 L 104.03 1043.19 L 104.16 1042.80 L 104.28 1042.41 L 104.39 1042.02 L 104.48 1041.62 L 104.55 1041.21 L 104.61 1040.81 L 104.66 1040.40 L 104.69 1040.00 L 104.70 1039.59 L 104.70 1039.18 L 104.68 1038.77 L 104.65 1038.36 L 104.60 1037.95 L 104.53 1037.55 L 104.46 1037.15 L 104.36 1036.75 L 104.25 1036.36 L 104.13 1035.97 L 103.99 1035.58 L 103.84 1035.20 L 103.67 1034.83 L 103.49 1034.46 L 103.29 1034.10 L 103.09 1033.75 L 102.86 1033.41 L 102.63 1033.07 L 102.38 1032.75 L 102.12 1032.43 L 101.85 1032.12 L 101.57 1031.83 L 101.28 1031.54 L 100.99 1031.25 L 100.72 1030.94 L 100.45 1030.63 L 100.20 1030.31 L 100.05 1029.98 L 100.00 1014.73 L 100.25 1014.73 L 100.50 1014.41 L 100.77 1014.10 L 101.05 1013.80 L 101.33 1013.51 L 101.63 1013.23 L 101.94 1012.95 L 102.25 1012.69 L 102.57 1012.44 L 102.90 1012.20 L 103.24 1011.97 L 103.58 1011.74 L 103.93 1011.54 L 104.29 1011.34 L 104.66 1011.15 L 105.03 1010.98 L 105.40 1010.81 L 105.78 1010.66 L 106.15 1010.50 L 106.52 1010.32 L 106.88 1010.12 L 107.24 1009.92 L 107.58 1009.70 L 107.92 1009.46 L 108.24 1009.22 L 108.56 1008.96 L 108.87 1008.69 L 109.17 1008.41 L 109.45 1008.12 L 109.73 1007.81 L 109.99 1007.50 L 110.24 1007.18 L 110.48 1006.85 L 110.71 1006.51 L 110.92 1006.16 L 111.12 1005.80 L 111.31 1005.44 L 111.48 1005.07 L 111.64 1004.69 L 111.78 1004.31 L 111.91 1003.92 L 112.03 1003.52 L 112.13 1003.13 L 112.21 1002.73 L 112.28 1002.32 L 112.34 1001.92 L 112.37 1001.51 L 112.40 1001.10 L 112.41 1000.69 L 112.40 1000.29 L 112.37 999.88 L 112.34 999.47 L 112.28 999.06 L 112.21 998.66 L 112.13 998.26 L 112.03 997.86 L 111.91 997.47 L 111.78 997.08 L 111.64 996.70 L 111.48 996.32 L 111.31 995.95 L 111.12 995.59 L 110.92 995.23 L 110.71 994.88 L 110.48 994.54 L 110.24 994.21 L 109.99 993.89 L 109.73 993.57 L 109.45 993.27 L 109.17 992.98 L 108.87 992.70 L 108.56 992.43 L 108.24 992.17 L 107.92 991.93 L 107.58 991.69 L 107.24 991.47 L 106.88 991.27 L 106.52 991.07 L 106.15 990.89 L 105.78 990.73 L 105.40 990.57 L 105.03 990.41 L 104.66 990.24 L 104.29 990.05 L 103.93 989.85 L 103.58 989.64 L 103.24 989.42 L 102.90 989.19 L 102.57 988.95 L 102.25 988.70 L 101.94 988.43 L 101.63 988.16 L 101.33 987.88 L 101.05 987.59 L 100.77 987.29 L 100.50 986.98 L 100.25 986.66 L 100.00 986.33 L 100.20 971.08 L 100.45 970.76 L 100.72 970.45 L 100.99 970.14 L 101.28 969.85 L 101.57 969.56 L 101.85 969.27 L 102.12 968.96 L 102.38 968.64 L 102.63 968.32 L 102.86 967.98 L 103.09 967.64 L 103.29 967.29 L 103.49 966.93 L 103.67 966.56 L 103.84 966.19 L 103.99 965.81 L 104.13 965.42 L 104.25 965.03 L 104.36 964.64 L 104.46 964.24 L 104.53 963.84 L 104.60 963.43 L 104.65 963.03 L 104.68 962.62 L 104.70 962.21 L 104.70 961.80 L 104.68 961.39 L 104.66 960.99 L 104.61 960.58 L 104.55 960.17 L 104.48 959.77 L 104.39 959.37 L 104.28 958.98 L 104.16 958.59 L 104.03 958.20 L 103.88 957.82 L 103.71 957.44 L 103.54 957.08 L 103.34 956.71 L 103.14 956.36 L 102.92 956.01 L 102.69 955.68 L 102.45 955.35 L 102.19 955.03 L 101.92 954.72 L 101.64 954.42 L 101.35 954.13 L 101.05 953.86 L 100.74 953.59 L 100.42 953.34 L 100.09 953.10 L 100.05 952.87 L 100.05 101.77 L 100.17 100.00 z"
 style="fill:#138013; fill-opacity:0.38; fill-rule:evenodd; stroke:#003300; stroke-opacity:1.00; stroke-width:0.00;" filter="url(#Gamma)"/>

</svg>
