<?xml version="1.0" standalone="no"?>
<!DOCTYPE svg PUBLIC "-//W3C//DTD SVG 1.0//EN"
"http://www.w3.org/TR/2001/REC-SVG-20010904/DTD/svg10.dtd">

<svg width="1575.4981775519093px" height="1575.5px" viewBox="0 0 1575.4981775519093 1575.5" version="1.1" xmlns="http://www.w3.org/2000/svg">
  <defs>
    <filter id="Gamma">
      <feComponentTransfer>
        <feFuncR type="gamma" amplitude="1" exponent="0.3" offset="0" />
        <feFuncG type="gamma" amplitude="1" exponent="0.3" offset="0" />
        <feFuncB type="gamma" amplitude="1" exponent="0.3" offset="0" />
      </feComponentTransfer>
    </filter>
  </defs>

 <path d=" M 102.30 100.00 L 1475.19 100.00 L 1475.50 102.26 L 1475.49 104.85 L 1475.48 107.44 L 1475.46 110.03 L 1475.44 112.61 L 1475.42 115.20 L 1475.39 117.78 L 1475.35 120.36 L 1475.31 122.94 L 1475.27 125.52 L 1475.22 128.10 L 1475.16 130.68 L 1475.11 133.25 L 1475.04 135.83 L 1474.97 138.40 L 1474.90 140.97 L 1474.82 143.55 L 1474.74 146.12 L 1474.65 148.69 L 1474.56 151.25 L 1474.47 153.82 L 1474.37 156.39 L 1474.26 158.95 L 1474.15 161.51 L 1474.03 164.07 L 1473.91 166.64 L 1473.79 169.19 L 1473.66 171.75 L 1473.53 174.31 L 1473.39 176.87 L 1473.25 179.42 L 1473.10 181.97 L 1472.95 184.52 L 1472.79 187.08 L 1472.63 189.63 L 1472.46 192.17 L 1472.29 194.72 L 1472.11 197.27 L 1471.93 199.81 L 1471.75 202.35 L 1471.56 204.90 L 1471.37 207.44 L 1471.17 209.98 L 1470.97 212.51 L 1470.76 215.05 L 1470.55 217.59 L 1470.33 220.12 L 1470.11 222.65 L 1469.88 225.18 L 1469.65 227.71 L 1469.42 230.24 L 1469.18 232.77 L 1468.93 235.30 L 1468.68 237.82 L 1468.43 240.34 L 1468.17 242.87 L 1467.91 245.39 L 1467.64 247.91 L 1467.37 250.42 L 1467.09 252.94 L 1466.81 255.46 L 1466.53 257.97 L 1466.24 260.48 L 1465.94 262.99 L 1465.65 265.50 L 1465.34 268.01 L 1465.04 270.52 L 1464.72 273.03 L 1464.41 275.53 L 1464.09 278.03 L 1463.76 280.53 L 1463.43 283.03 L 1463.10 285.53 L 1462.76 288.03 L 1462.41 290.53 L 1462.07 293.02 L 1461.71 295.51 L 1461.36 298.00 L 1460.99 300.50 L 1460.63 302.98 L 1460.26 305.47 L 1459.88 307.96 L 1459.51 310.44 L 1459.12 312.92 L 1458.73 315.41 L 1458.34 317.88 L 1457.94 320.36 L 1457.54 322.84 L 1457.14 325.32 L 1456.73 327.79 L 1456.31 330.26 L 1455.90 332.73 L 1455.47 335.20 L 1455.04 337.67 L 1454.61 340.14 L 1454.18 342.60 L 1453.74 345.07 L 1453.29 347.53 L 1452.84 349.99 L 1452.39 352.45 L 1451.93 354.90 L 1451.47 357.36 L 1451.00 359.81 L 1450.53 362.27 L 1450.05 364.72 L 1449.57 367.17 L 1449.09 369.62 L 1448.60 372.06 L 1448.11 374.51 L 1447.61 376.95 L 1447.11 379.39 L 1446.60 381.83 L 1446.09 384.27 L 1445.58 386.71 L 1445.06 389.14 L 1444.54 391.58 L 1444.01 394.01 L 1443.48 396.44 L 1442.94 398.87 L 1442.40 401.30 L 1441.86 403.72 L 1441.31 406.15 L 1440.76 408.57 L 1440.20 410.99 L 1439.64 413.41 L 1439.07 415.83 L 1438.50 418.25 L 1437.93 420.66 L 1437.35 423.07 L 1436.77 425.48 L 1436.18 427.89 L 1435.59 430.30 L 1434.99 432.71 L 1434.39 435.11 L 1433.79 437.51 L 1433.18 439.92 L 1432.57 442.32 L 1431.95 444.71 L 1431.33 447.11 L 1430.71 449.50 L 1430.08 451.90 L 1429.45 454.29 L 1428.81 456.68 L 1428.17 459.06 L 1427.52 461.45 L 1426.87 463.84 L 1426.22 466.22 L 1425.56 468.60 L 1424.90 470.98 L 1424.23 473.35 L 1423.56 475.73 L 1422.89 478.10 L 1422.21 480.48 L 1421.52 482.85 L 1420.84 485.21 L 1420.15 487.58 L 1419.45 489.95 L 1418.75 492.31 L 1418.05 494.67 L 1417.34 497.03 L 1416.63 499.39 L 1415.91 501.75 L 1415.19 504.10 L 1414.47 506.45 L 1413.74 508.80 L 1413.01 511.15 L 1412.27 513.50 L 1411.53 515.84 L 1410.78 518.19 L 1410.03 520.53 L 1409.28 522.87 L 1408.53 525.21 L 1407.76 527.54 L 1407.00 529.88 L 1406.23 532.21 L 1405.46 534.54 L 1404.68 536.87 L 1403.90 539.20 L 1403.11 541.52 L 1402.32 543.85 L 1401.53 546.17 L 1400.73 548.49 L 1399.93 550.81 L 1399.13 553.12 L 1398.32 555.44 L 1397.51 557.75 L 1396.69 560.06 L 1395.87 562.37 L 1395.04 564.67 L 1394.21 566.98 L 1393.38 569.28 L 1392.54 571.58 L 1391.70 573.88 L 1390.86 576.18 L 1390.01 578.47 L 1389.15 580.76 L 1388.30 583.05 L 1387.43 585.34 L 1386.57 587.63 L 1385.70 589.92 L 1384.83 592.20 L 1383.95 594.48 L 1383.07 596.76 L 1382.19 599.04 L 1381.30 601.31 L 1380.40 603.59 L 1379.51 605.86 L 1378.61 608.13 L 1377.70 610.40 L 1376.80 612.66 L 1375.88 614.93 L 1374.97 617.19 L 1374.05 619.45 L 1373.12 621.70 L 1372.20 623.96 L 1371.27 626.21 L 1370.33 628.47 L 1369.39 630.72 L 1368.45 632.96 L 1367.50 635.21 L 1366.55 637.45 L 1365.60 639.69 L 1364.64 641.93 L 1363.67 644.17 L 1362.71 646.41 L 1361.74 648.64 L 1360.76 650.87 L 1359.79 653.10 L 1358.80 655.33 L 1357.82 657.55 L 1356.83 659.77 L 1355.84 662.00 L 1354.84 664.21 L 1353.84 666.43 L 1352.84 668.65 L 1351.83 670.86 L 1350.82 673.07 L 1349.80 675.28 L 1348.78 677.48 L 1347.76 679.69 L 1346.73 681.89 L 1345.70 684.09 L 1344.66 686.29 L 1343.63 688.48 L 1342.58 690.68 L 1341.54 692.87 L 1340.49 695.06 L 1339.43 697.25 L 1338.38 699.43 L 1337.32 701.61 L 1336.25 703.79 L 1335.18 705.97 L 1334.11 708.15 L 1333.04 710.32 L 1331.96 712.50 L 1330.87 714.67 L 1329.79 716.83 L 1328.70 719.00 L 1327.60 721.16 L 1326.50 723.32 L 1325.40 725.48 L 1324.30 727.64 L 1323.19 729.79 L 1322.07 731.95 L 1320.96 734.10 L 1319.84 736.24 L 1318.71 738.39 L 1317.59 740.53 L 1316.45 742.67 L 1315.32 744.81 L 1314.18 746.95 L 1313.04 749.08 L 1311.89 751.22 L 1310.74 753.35 L 1309.59 755.48 L 1308.43 757.60 L 1307.27 759.72 L 1306.11 761.84 L 1304.94 763.96 L 1303.77 766.08 L 1302.60 768.19 L 1301.42 770.31 L 1300.24 772.42 L 1299.05 774.52 L 1297.86 776.63 L 1296.67 778.73 L 1295.47 780.83 L 1294.27 782.93 L 1293.07 785.03 L 1291.86 787.12 L 1290.65 789.21 L 1289.44 791.30 L 1288.22 793.39 L 1287.00 795.47 L 1285.77 797.55 L 1284.55 799.63 L 1283.31 801.71 L 1282.08 803.78 L 1280.84 805.86 L 1279.60 807.93 L 1278.35 809.99 L 1277.10 812.06 L 1275.85 814.12 L 1274.59 816.18 L 1273.33 818.24 L 1272.07 820.30 L 1270.80 822.35 L 1269.53 824.40 L 1268.26 826.45 L 1266.98 828.50 L 1265.70 830.54 L 1264.41 832.58 L 1263.13 834.62 L 1261.83 836.66 L 1260.54 838.69 L 1259.24 840.72 L 1257.94 842.75 L 1256.63 844.78 L 1255.32 846.80 L 1254.01 848.83 L 1252.70 850.85 L 1251.38 852.86 L 1250.05 854.88 L 1248.73 856.89 L 1247.40 858.90 L 1246.07 860.91 L 1244.73 862.91 L 1243.39 864.91 L 1242.05 866.91 L 1240.70 868.91 L 1239.35 870.91 L 1238.00 872.90 L 1236.64 874.89 L 1235.28 876.88 L 1233.92 878.86 L 1232.55 880.84 L 1231.18 882.82 L 1229.81 884.80 L 1228.43 886.78 L 1227.05 888.75 L 1225.67 890.72 L 1224.28 892.69 L 1222.89 894.65 L 1221.49 896.61 L 1220.10 898.57 L 1218.70 900.53 L 1217.29 902.49 L 1215.89 904.44 L 1214.48 906.39 L 1213.06 908.33 L 1211.65 910.28 L 1210.23 912.22 L 1208.80 914.16 L 1207.37 916.10 L 1205.94 918.03 L 1204.51 919.96 L 1203.07 921.89 L 1201.63 923.82 L 1200.19 925.74 L 1198.74 927.66 L 1197.29 929.58 L 1195.84 931.50 L 1194.38 933.41 L 1192.92 935.32 L 1191.46 937.23 L 1189.99 939.13 L 1188.52 941.03 L 1187.05 942.94 L 1185.58 944.83 L 1184.10 946.73 L 1182.61 948.62 L 1181.13 950.51 L 1179.64 952.40 L 1178.15 954.28 L 1176.65 956.16 L 1175.15 958.04 L 1173.65 959.92 L 1172.15 961.79 L 1170.64 963.66 L 1169.13 965.53 L 1167.61 967.39 L 1166.09 969.26 L 1164.57 971.12 L 1163.05 972.97 L 1161.52 974.83 L 1159.99 976.68 L 1158.46 978.53 L 1156.92 980.38 L 1155.38 982.22 L 1153.84 984.06 L 1152.29 985.90 L 1150.74 987.73 L 1149.19 989.57 L 1147.63 991.40 L 1146.07 993.22 L 1144.51 995.05 L 1142.95 996.87 L 1141.38 998.69 L 1139.81 1000.50 L 1138.23 1002.32 L 1136.65 1004.13 L 1135.07 1005.94 L 1133.49 1007.74 L 1131.90 1009.54 L 1130.31 1011.34 L 1128.72 1013.14 L 1127.12 1014.93 L 1125.52 1016.72 L 1123.92 1018.51 L 1122.32 1020.30 L 1120.71 1022.08 L 1119.10 1023.86 L 1117.48 1025.64 L 1115.86 1027.41 L 1114.24 1029.18 L 1112.62 1030.95 L 1110.99 1032.72 L 1109.36 1034.48 L 1107.73 1036.24 L 1106.09 1038.00 L 1104.45 1039.75 L 1102.81 1041.50 L 1101.17 1043.25 L 1099.52 1045.00 L 1097.87 1046.74 L 1096.21 1048.48 L 1094.56 1050.22 L 1092.90 1051.95 L 1091.23 1053.68 L 1089.57 1055.41 L 1087.90 1057.13 L 1086.23 1058.86 L 1084.55 1060.58 L 1082.87 1062.29 L 1081.19 1064.01 L 1079.51 1065.72 L 1077.82 1067.42 L 1076.13 1069.13 L 1074.44 1070.83 L 1072.74 1072.53 L 1071.05 1074.23 L 1069.34 1075.92 L 1067.64 1077.61 L 1065.93 1079.30 L 1064.22 1080.98 L 1062.51 1082.66 L 1060.79 1084.34 L 1059.07 1086.02 L 1057.35 1087.69 L 1055.63 1089.36 L 1053.90 1091.02 L 1052.17 1092.69 L 1050.43 1094.35 L 1048.70 1096.01 L 1046.96 1097.66 L 1045.22 1099.31 L 1043.47 1100.96 L 1041.72 1102.61 L 1039.97 1104.25 L 1038.22 1105.89 L 1036.46 1107.52 L 1034.70 1109.16 L 1032.94 1110.79 L 1031.17 1112.41 L 1029.41 1114.04 L 1027.63 1115.66 L 1025.86 1117.28 L 1024.08 1118.89 L 1022.30 1120.51 L 1020.52 1122.11 L 1018.74 1123.72 L 1016.95 1125.32 L 1015.16 1126.92 L 1013.37 1128.52 L 1011.57 1130.11 L 1009.77 1131.70 L 1007.97 1133.29 L 1006.16 1134.87 L 1004.36 1136.46 L 1002.55 1138.03 L 1000.73 1139.61 L 998.92 1141.18 L 997.10 1142.75 L 995.28 1144.31 L 993.45 1145.88 L 991.63 1147.44 L 989.80 1148.99 L 987.96 1150.55 L 986.13 1152.10 L 984.29 1153.64 L 982.45 1155.19 L 980.61 1156.73 L 978.76 1158.26 L 976.91 1159.80 L 975.06 1161.33 L 973.21 1162.86 L 971.35 1164.38 L 969.49 1165.90 L 967.63 1167.42 L 965.76 1168.94 L 963.90 1170.45 L 962.03 1171.96 L 960.15 1173.46 L 958.28 1174.96 L 956.40 1176.46 L 954.52 1177.96 L 952.63 1179.45 L 950.75 1180.94 L 948.86 1182.43 L 946.97 1183.91 L 945.07 1185.39 L 943.17 1186.87 L 941.27 1188.34 L 939.37 1189.81 L 937.47 1191.28 L 935.56 1192.74 L 933.65 1194.20 L 931.74 1195.66 L 929.82 1197.11 L 927.90 1198.56 L 925.98 1200.01 L 924.06 1201.45 L 922.13 1202.89 L 920.20 1204.33 L 918.27 1205.76 L 916.34 1207.19 L 914.40 1208.62 L 912.46 1210.05 L 910.52 1211.47 L 908.58 1212.88 L 906.63 1214.30 L 904.68 1215.71 L 902.73 1217.12 L 900.78 1218.52 L 898.82 1219.92 L 896.86 1221.32 L 894.90 1222.71 L 892.93 1224.10 L 890.97 1225.49 L 889.00 1226.88 L 887.03 1228.26 L 885.05 1229.63 L 883.07 1231.01 L 881.09 1232.38 L 879.11 1233.75 L 877.13 1235.11 L 875.14 1236.47 L 873.15 1237.83 L 871.16 1239.18 L 869.16 1240.53 L 867.17 1241.88 L 865.17 1243.22 L 863.16 1244.56 L 861.16 1245.90 L 859.15 1247.23 L 857.14 1248.56 L 855.13 1249.89 L 853.12 1251.21 L 851.10 1252.53 L 849.08 1253.85 L 847.06 1255.16 L 845.03 1256.47 L 843.01 1257.77 L 840.98 1259.08 L 838.95 1260.38 L 836.91 1261.67 L 834.88 1262.96 L 832.84 1264.25 L 830.80 1265.54 L 828.75 1266.82 L 826.71 1268.10 L 824.66 1269.37 L 822.61 1270.64 L 820.56 1271.91 L 818.50 1273.17 L 816.44 1274.43 L 814.38 1275.69 L 812.32 1276.94 L 810.25 1278.19 L 808.19 1279.44 L 806.12 1280.68 L 804.04 1281.92 L 801.97 1283.16 L 799.89 1284.39 L 797.81 1285.62 L 795.73 1286.84 L 793.65 1288.07 L 791.56 1289.28 L 789.47 1290.50 L 787.38 1291.71 L 785.29 1292.92 L 783.19 1294.12 L 781.10 1295.32 L 779.00 1296.52 L 776.89 1297.71 L 774.79 1298.90 L 772.68 1300.09 L 770.57 1301.27 L 768.46 1302.45 L 766.35 1303.62 L 764.23 1304.80 L 762.11 1305.96 L 759.99 1307.13 L 757.87 1308.29 L 755.74 1309.45 L 753.62 1310.60 L 751.49 1311.75 L 749.35 1312.90 L 747.22 1314.04 L 745.08 1315.18 L 742.94 1316.31 L 740.80 1317.44 L 738.66 1318.57 L 736.51 1319.70 L 734.37 1320.82 L 732.22 1321.93 L 730.06 1323.05 L 727.91 1324.16 L 725.75 1325.26 L 723.60 1326.36 L 721.43 1327.46 L 719.27 1328.56 L 717.11 1329.65 L 714.94 1330.74 L 712.77 1331.82 L 710.60 1332.90 L 708.42 1333.98 L 706.25 1335.05 L 704.07 1336.12 L 701.89 1337.18 L 699.71 1338.24 L 697.52 1339.30 L 695.33 1340.36 L 693.14 1341.41 L 690.95 1342.45 L 688.76 1343.49 L 686.56 1344.53 L 684.37 1345.57 L 682.17 1346.60 L 679.97 1347.63 L 677.76 1348.65 L 675.56 1349.67 L 673.35 1350.69 L 671.14 1351.70 L 668.93 1352.71 L 666.71 1353.71 L 664.49 1354.71 L 662.28 1355.71 L 660.05 1356.71 L 657.83 1357.70 L 655.61 1358.68 L 653.38 1359.66 L 651.15 1360.64 L 648.92 1361.62 L 646.69 1362.59 L 644.45 1363.55 L 642.21 1364.52 L 639.98 1365.47 L 637.73 1366.43 L 635.49 1367.38 L 633.25 1368.33 L 631.00 1369.27 L 628.75 1370.21 L 626.50 1371.15 L 624.24 1372.08 L 621.99 1373.01 L 619.73 1373.93 L 617.47 1374.85 L 615.21 1375.77 L 612.95 1376.68 L 610.68 1377.59 L 608.41 1378.49 L 606.14 1379.40 L 603.87 1380.29 L 601.60 1381.19 L 599.33 1382.07 L 597.05 1382.96 L 594.77 1383.84 L 592.49 1384.72 L 590.20 1385.59 L 587.92 1386.46 L 585.63 1387.33 L 583.34 1388.19 L 581.05 1389.05 L 578.76 1389.90 L 576.47 1390.75 L 574.17 1391.59 L 571.87 1392.44 L 569.57 1393.27 L 567.27 1394.11 L 564.96 1394.94 L 562.66 1395.76 L 560.35 1396.58 L 558.04 1397.40 L 555.73 1398.22 L 553.41 1399.03 L 551.10 1399.83 L 548.78 1400.63 L 546.46 1401.43 L 544.14 1402.23 L 541.82 1403.01 L 539.49 1403.80 L 537.16 1404.58 L 534.84 1405.36 L 532.50 1406.13 L 530.17 1406.90 L 527.84 1407.67 L 525.50 1408.43 L 523.16 1409.19 L 520.82 1409.94 L 518.48 1410.69 L 516.14 1411.43 L 513.79 1412.18 L 511.45 1412.91 L 509.10 1413.65 L 506.75 1414.37 L 504.40 1415.10 L 502.04 1415.82 L 499.69 1416.54 L 497.33 1417.25 L 494.97 1417.96 L 492.61 1418.66 L 490.24 1419.36 L 487.88 1420.06 L 485.51 1420.75 L 483.14 1421.44 L 480.77 1422.12 L 478.40 1422.80 L 476.03 1423.48 L 473.65 1424.15 L 471.28 1424.81 L 468.90 1425.48 L 466.52 1426.14 L 464.14 1426.79 L 461.75 1427.44 L 459.37 1428.09 L 456.98 1428.73 L 454.59 1429.37 L 452.20 1430.00 L 449.81 1430.63 L 447.41 1431.26 L 445.02 1431.88 L 442.62 1432.49 L 440.22 1433.11 L 437.82 1433.71 L 435.41 1434.32 L 433.01 1434.92 L 430.60 1435.51 L 428.20 1436.11 L 425.79 1436.69 L 423.38 1437.28 L 420.96 1437.86 L 418.55 1438.43 L 416.13 1439.00 L 413.72 1439.57 L 411.30 1440.13 L 408.88 1440.69 L 406.45 1441.24 L 404.03 1441.79 L 401.60 1442.33 L 399.18 1442.88 L 396.75 1443.41 L 394.32 1443.94 L 391.89 1444.47 L 389.45 1445.00 L 387.02 1445.51 L 384.58 1446.03 L 382.14 1446.54 L 379.70 1447.05 L 377.26 1447.55 L 374.82 1448.05 L 372.37 1448.54 L 369.92 1449.03 L 367.48 1449.51 L 365.03 1449.99 L 362.58 1450.47 L 360.12 1450.94 L 357.67 1451.41 L 355.21 1451.87 L 352.76 1452.33 L 350.30 1452.78 L 347.84 1453.23 L 345.38 1453.68 L 342.91 1454.12 L 340.45 1454.56 L 337.98 1454.99 L 335.51 1455.42 L 333.04 1455.84 L 330.57 1456.26 L 328.10 1456.68 L 325.63 1457.09 L 323.15 1457.49 L 320.68 1457.89 L 318.20 1458.29 L 315.72 1458.68 L 313.24 1459.07 L 310.75 1459.46 L 308.27 1459.84 L 305.78 1460.21 L 303.30 1460.58 L 300.81 1460.95 L 298.32 1461.31 L 295.83 1461.67 L 293.33 1462.02 L 290.84 1462.37 L 288.34 1462.71 L 285.85 1463.05 L 283.35 1463.39 L 280.85 1463.72 L 278.35 1464.04 L 275.85 1464.37 L 273.34 1464.68 L 270.84 1465.00 L 268.33 1465.30 L 265.82 1465.61 L 263.31 1465.91 L 260.80 1466.20 L 258.29 1466.49 L 255.77 1466.78 L 253.26 1467.06 L 250.74 1467.34 L 248.22 1467.61 L 245.70 1467.88 L 243.18 1468.14 L 240.66 1468.40 L 238.14 1468.65 L 235.61 1468.90 L 233.09 1469.14 L 230.56 1469.39 L 228.03 1469.62 L 225.50 1469.85 L 222.97 1470.08 L 220.44 1470.30 L 217.90 1470.52 L 215.37 1470.73 L 212.83 1470.94 L 210.29 1471.14 L 207.76 1471.34 L 205.22 1471.54 L 202.67 1471.73 L 200.13 1471.91 L 197.59 1472.09 L 195.04 1472.27 L 192.49 1472.44 L 189.95 1472.61 L 187.40 1472.77 L 184.85 1472.93 L 182.29 1473.08 L 179.74 1473.23 L 177.19 1473.37 L 174.63 1473.51 L 172.07 1473.64 L 169.52 1473.77 L 166.96 1473.90 L 164.40 1474.02 L 161.84 1474.14 L 159.27 1474.25 L 156.71 1474.35 L 154.14 1474.45 L 151.58 1474.55 L 149.01 1474.64 L 146.44 1474.73 L 143.87 1474.81 L 141.30 1474.89 L 138.73 1474.97 L 136.15 1475.03 L 133.58 1475.10 L 131.00 1475.16 L 128.42 1475.21 L 125.85 1475.26 L 123.27 1475.31 L 120.69 1475.35 L 118.10 1475.38 L 115.52 1475.41 L 112.94 1475.44 L 110.35 1475.46 L 107.77 1475.48 L 105.18 1475.49 L 102.59 1475.50 L 100.00 1475.50 L 100.00 100.15 z M 453.87 342.21 L 453.46 342.22 L 453.05 342.24 L 452.64 342.28 L 452.24 342.33 L 451.83 342.40 L 451.43 342.49 L 451.04 342.59 L 450.65 342.70 L 450.26 342.83 L 449.87 342.98 L 449.50 343.13 L 449.13 343.31 L 448.76 343.49 L 448.40 343.69 L 448.06 343.91 L 447.72 344.13 L 447.38 344.37 L 447.06 344.62 L 446.75 344.89 L 446.45 345.16 L 446.15 345.45 L 445.87 345.75 L 445.60 346.05 L 445.35 346.37 L 445.10 346.70 L 444.87 347.04 L 444.65 347.38 L 444.44 347.73 L 444.25 348.09 L 444.07 348.46 L 443.90 348.84 L 443.75 349.21 L 443.59 349.59 L 443.41 349.96 L 443.23 350.32 L 443.03 350.68 L 442.82 351.03 L 442.60 351.38 L 442.37 351.72 L 442.12 352.05 L 441.87 352.37 L 441.61 352.68 L 441.34 352.99 L 441.05 353.28 L 440.76 353.57 L 440.46 353.84 L 440.15 354.11 L 439.83 354.37 L 439.51 354.62 L 439.17 354.85 L 438.83 355.08 L 438.48 355.29 L 438.13 355.49 L 437.76 355.69 L 437.40 355.86 L 437.02 356.03 L 436.65 356.19 L 436.26 356.33 L 435.87 356.46 L 435.48 356.58 L 435.09 356.68 L 434.69 356.78 L 434.29 356.86 L 433.88 356.92 L 433.48 356.98 L 433.07 357.02 L 432.66 357.05 L 432.25 357.06 L 431.85 357.06 L 431.44 357.05 L 431.03 357.03 L 430.62 356.99 L 430.21 356.94 L 429.81 356.87 L 429.41 356.79 L 429.01 356.70 L 428.61 356.60 L 428.22 356.48 L 427.83 356.36 L 427.45 356.22 L 427.07 356.06 L 426.70 355.90 L 426.33 355.72 L 425.96 355.53 L 425.61 355.33 L 425.26 355.12 L 424.91 354.90 L 424.58 354.66 L 424.25 354.42 L 423.93 354.16 L 423.62 353.90 L 423.32 353.62 L 423.02 353.34 L 422.74 353.05 L 422.44 352.76 L 422.13 352.49 L 421.82 352.23 L 421.49 351.99 L 421.16 351.75 L 420.81 351.53 L 420.46 351.32 L 420.10 351.13 L 419.73 350.95 L 419.36 350.78 L 418.98 350.63 L 418.60 350.49 L 418.21 350.36 L 417.81 350.25 L 417.41 350.16 L 417.01 350.08 L 416.61 350.02 L 416.20 349.97 L 415.79 349.94 L 415.39 349.92 L 414.98 349.92 L 414.57 349.93 L 414.16 349.96 L 413.75 350.00 L 413.35 350.06 L 412.95 350.14 L 412.55 350.23 L 412.15 350.33 L 411.76 350.45 L 411.37 350.59 L 410.99 350.74 L 410.62 350.90 L 410.25 351.08 L 409.89 351.27 L 409.53 351.48 L 409.19 351.69 L 408.85 351.93 L 408.52 352.17 L 408.20 352.43 L 407.89 352.69 L 407.60 352.97 L 407.31 353.26 L 407.03 353.57 L 406.77 353.88 L 406.51 354.20 L 406.27 354.53 L 406.04 354.87 L 405.83 355.22 L 405.63 355.57 L 405.44 355.94 L 405.27 356.31 L 405.10 356.68 L 404.96 357.06 L 404.83 357.45 L 404.71 357.84 L 404.61 358.24 L 404.52 358.64 L 404.45 359.04 L 404.40 359.45 L 404.36 359.86 L 404.33 360.26 L 404.32 360.67 L 404.32 361.08 L 404.32 361.49 L 404.30 361.90 L 404.27 362.31 L 404.22 362.71 L 404.16 363.12 L 404.09 363.52 L 404.00 363.92 L 403.91 364.32 L 403.80 364.71 L 403.67 365.10 L 403.54 365.49 L 403.39 365.87 L 403.23 366.25 L 403.06 366.62 L 402.87 366.98 L 402.68 367.34 L 402.47 367.70 L 402.25 368.04 L 402.02 368.38 L 401.78 368.71 L 401.53 369.04 L 401.27 369.35 L 401.00 369.66 L 400.72 369.95 L 400.43 370.24 L 400.13 370.52 L 399.82 370.79 L 399.51 371.05 L 399.18 371.30 L 398.85 371.54 L 398.51 371.76 L 398.16 371.98 L 397.81 372.18 L 397.45 372.38 L 397.08 372.56 L 396.71 372.73 L 396.33 372.89 L 395.95 373.03 L 395.56 373.17 L 395.17 373.29 L 394.78 373.39 L 394.38 373.49 L 393.98 373.57 L 393.57 373.64 L 393.17 373.70 L 392.76 373.74 L 392.35 373.77 L 391.94 373.79 L 391.54 373.79 L 391.13 373.78 L 390.72 373.76 L 390.31 373.72 L 389.90 373.68 L 389.50 373.61 L 389.10 373.54 L 388.70 373.45 L 388.30 373.35 L 387.91 373.24 L 387.52 373.11 L 387.13 372.97 L 386.75 372.82 L 386.38 372.66 L 386.00 372.51 L 385.61 372.38 L 385.22 372.26 L 384.82 372.16 L 384.42 372.07 L 384.02 372.00 L 383.61 371.94 L 383.21 371.90 L 382.80 371.87 L 382.39 371.86 L 381.98 371.86 L 381.57 371.88 L 381.17 371.92 L 380.76 371.97 L 380.36 372.03 L 379.95 372.11 L 379.56 372.21 L 379.16 372.32 L 378.77 372.45 L 378.39 372.59 L 378.01 372.74 L 377.64 372.91 L 377.27 373.09 L 376.91 373.29 L 376.56 373.50 L 376.22 373.72 L 375.89 373.96 L 375.56 374.21 L 375.25 374.47 L 374.94 374.74 L 374.65 375.03 L 374.36 375.32 L 374.09 375.63 L 373.83 375.94 L 373.58 376.27 L 373.34 376.60 L 373.12 376.94 L 372.91 377.29 L 372.71 377.65 L 372.53 378.02 L 372.36 378.39 L 372.21 378.77 L 372.07 379.15 L 371.94 379.54 L 371.83 379.94 L 371.73 380.33 L 371.65 380.74 L 371.59 381.14 L 371.54 381.54 L 371.50 381.95 L 371.48 382.36 L 371.48 382.77 L 371.49 383.18 L 371.52 383.59 L 371.56 383.99 L 371.62 384.40 L 371.69 384.80 L 371.78 385.20 L 371.88 385.60 L 372.00 385.99 L 372.14 386.38 L 372.28 386.76 L 372.44 387.13 L 372.59 387.51 L 372.73 387.90 L 372.86 388.29 L 372.97 388.68 L 373.07 389.08 L 373.16 389.48 L 373.23 389.88 L 373.30 390.28 L 373.34 390.69 L 373.38 391.10 L 373.40 391.51 L 373.41 391.92 L 373.41 392.32 L 373.39 392.73 L 373.36 393.14 L 373.32 393.55 L 373.26 393.95 L 373.19 394.36 L 373.11 394.76 L 373.02 395.15 L 372.91 395.55 L 372.79 395.94 L 372.65 396.33 L 372.51 396.71 L 372.35 397.09 L 372.18 397.46 L 372.00 397.83 L 371.81 398.19 L 371.60 398.54 L 371.38 398.89 L 371.16 399.23 L 370.92 399.56 L 370.67 399.89 L 370.41 400.20 L 370.14 400.51 L 369.86 400.81 L 369.58 401.10 L 369.28 401.38 L 368.97 401.65 L 368.66 401.91 L 368.33 402.16 L 368.00 402.40 L 367.66 402.63 L 367.32 402.85 L 366.96 403.06 L 366.60 403.25 L 366.24 403.44 L 365.87 403.61 L 365.49 403.77 L 365.11 403.92 L 364.72 404.05 L 364.33 404.18 L 363.94 404.29 L 363.54 404.38 L 363.14 404.47 L 362.74 404.54 L 362.34 404.60 L 361.93 404.65 L 361.52 404.68 L 361.11 404.70 L 360.70 404.70 L 360.29 404.70 L 359.89 404.71 L 359.48 404.74 L 359.07 404.78 L 358.66 404.83 L 358.26 404.90 L 357.86 404.99 L 357.47 405.09 L 357.07 405.21 L 356.69 405.34 L 356.30 405.48 L 355.93 405.64 L 355.56 405.82 L 355.19 406.01 L 354.84 406.21 L 354.49 406.42 L 354.15 406.65 L 353.82 406.89 L 353.50 407.15 L 353.19 407.41 L 352.89 407.69 L 352.59 407.98 L 352.32 408.27 L 352.05 408.58 L 351.79 408.90 L 351.55 409.23 L 351.32 409.57 L 351.10 409.91 L 350.89 410.27 L 350.70 410.63 L 350.52 411.00 L 350.36 411.37 L 350.21 411.75 L 350.07 412.14 L 349.95 412.53 L 349.85 412.93 L 349.76 413.33 L 349.68 413.73 L 349.62 414.13 L 349.58 414.54 L 349.55 414.95 L 349.54 415.36 L 349.54 415.76 L 349.56 416.17 L 349.59 416.58 L 349.64 416.99 L 349.70 417.39 L 349.78 417.79 L 349.87 418.19 L 349.98 418.59 L 350.11 418.98 L 350.25 419.36 L 350.40 419.74 L 350.57 420.11 L 350.75 420.48 L 350.94 420.84 L 351.15 421.19 L 351.37 421.54 L 351.61 421.87 L 351.85 422.20 L 352.11 422.51 L 352.38 422.82 L 352.67 423.12 L 352.96 423.40 L 353.24 423.70 L 353.52 424.00 L 353.78 424.31 L 354.04 424.63 L 354.28 424.96 L 354.52 425.29 L 354.74 425.64 L 354.95 425.99 L 355.15 426.34 L 355.34 426.71 L 355.52 427.08 L 355.68 427.45 L 355.84 427.83 L 355.98 428.21 L 356.10 428.60 L 356.22 428.99 L 356.32 429.39 L 356.41 429.79 L 356.49 430.19 L 356.56 430.59 L 356.61 431.00 L 356.64 431.41 L 356.67 431.82 L 356.68 432.22 L 356.68 432.63 L 356.67 433.04 L 356.64 433.45 L 356.60 433.86 L 356.54 434.26 L 356.48 434.67 L 356.40 435.07 L 356.30 435.47 L 356.20 435.86 L 356.08 436.25 L 355.95 436.64 L 355.81 437.02 L 355.65 437.40 L 355.48 437.78 L 355.30 438.14 L 355.11 438.51 L 354.91 438.86 L 354.70 439.21 L 354.47 439.55 L 354.24 439.89 L 353.99 440.21 L 353.73 440.53 L 353.46 440.84 L 353.19 441.14 L 352.90 441.43 L 352.61 441.71 L 352.30 441.99 L 351.99 442.25 L 351.67 442.50 L 351.34 442.75 L 351.00 442.98 L 350.65 443.20 L 350.30 443.41 L 349.94 443.60 L 349.58 443.79 L 349.21 443.97 L 348.83 444.13 L 348.46 444.28 L 348.08 444.45 L 347.71 444.63 L 347.35 444.82 L 347.00 445.03 L 346.65 445.25 L 346.32 445.48 L 345.99 445.72 L 345.67 445.98 L 345.37 446.25 L 345.07 446.53 L 344.78 446.82 L 344.51 447.13 L 344.24 447.44 L 343.99 447.76 L 343.75 448.09 L 343.53 448.44 L 343.31 448.78 L 343.11 449.14 L 342.93 449.51 L 342.75 449.88 L 342.60 450.25 L 342.45 450.64 L 342.32 451.02 L 342.21 451.42 L 342.11 451.81 L 342.02 452.21 L 341.95 452.62 L 341.90 453.02 L 341.86 453.43 L 341.84 453.84 L 341.83 454.25 L 341.84 454.66 L 341.86 455.07 L 341.90 455.47 L 341.95 455.88 L 342.02 456.28 L 342.11 456.68 L 342.21 457.08 L 342.32 457.47 L 342.45 457.86 L 342.60 458.24 L 342.75 458.62 L 342.93 458.99 L 343.11 459.35 L 343.31 459.71 L 343.53 460.06 L 343.75 460.40 L 343.99 460.73 L 344.24 461.06 L 344.51 461.37 L 344.78 461.67 L 345.07 461.96 L 345.37 462.24 L 345.67 462.51 L 345.99 462.77 L 346.32 463.02 L 346.66 463.25 L 347.00 463.47 L 347.35 463.68 L 347.71 463.87 L 348.08 464.05 L 348.46 464.21 L 348.83 464.37 L 349.21 464.53 L 349.58 464.70 L 349.94 464.89 L 350.30 465.09 L 350.65 465.30 L 351.00 465.52 L 351.34 465.75 L 351.67 465.99 L 351.99 466.24 L 352.30 466.51 L 352.61 466.78 L 352.90 467.06 L 353.19 467.35 L 353.46 467.66 L 353.73 467.97 L 353.99 468.28 L 354.24 468.61 L 354.47 468.94 L 354.70 469.29 L 354.91 469.63 L 355.11 469.99 L 355.31 470.35 L 355.48 470.72 L 355.65 471.09 L 355.81 471.47 L 355.95 471.85 L 356.08 472.24 L 356.20 472.63 L 356.31 473.03 L 356.40 473.43 L 356.48 473.83 L 356.54 474.23 L 356.60 474.64 L 356.64 475.04 L 356.67 475.45 L 356.68 475.86 L 356.68 476.27 L 356.67 476.68 L 356.65 477.09 L 356.61 477.50 L 356.56 477.90 L 356.49 478.30 L 356.41 478.71 L 356.32 479.11 L 356.22 479.50 L 356.11 479.89 L 355.98 480.28 L 355.84 480.67 L 355.68 481.05 L 355.52 481.42 L 355.34 481.79 L 355.15 482.15 L 354.95 482.51 L 354.74 482.86 L 354.52 483.20 L 354.28 483.54 L 354.04 483.86 L 353.78 484.18 L 353.52 484.50 L 353.24 484.80 L 352.96 485.09 L 352.67 485.38 L 352.38 485.68 L 352.11 485.98 L 351.85 486.30 L 351.61 486.62 L 351.37 486.96 L 351.15 487.30 L 350.94 487.66 L 350.75 488.02 L 350.57 488.38 L 350.40 488.76 L 350.25 489.14 L 350.11 489.52 L 349.98 489.91 L 349.87 490.30 L 349.78 490.70 L 349.70 491.10 L 349.64 491.51 L 349.59 491.91 L 349.56 492.32 L 349.54 492.73 L 349.54 493.14 L 349.55 493.55 L 349.58 493.96 L 349.62 494.36 L 349.68 494.77 L 349.76 495.17 L 349.85 495.57 L 349.95 495.96 L 350.07 496.36 L 350.21 496.74 L 350.36 497.12 L 350.52 497.50 L 350.70 497.87 L 350.89 498.23 L 351.10 498.58 L 351.32 498.93 L 351.55 499.26 L 351.79 499.59 L 352.05 499.91 L 352.31 500.22 L 352.59 500.52 L 352.88 500.81 L 353.19 501.08 L 353.50 501.35 L 353.82 501.60 L 354.15 501.84 L 354.49 502.07 L 354.84 502.29 L 355.19 502.49 L 355.56 502.68 L 355.93 502.85 L 356.30 503.01 L 356.69 503.16 L 357.07 503.29 L 357.46 503.40 L 357.86 503.51 L 358.26 503.59 L 358.66 503.66 L 359.07 503.72 L 359.48 503.76 L 359.88 503.79 L 360.29 503.80 L 360.70 503.79 L 361.11 503.80 L 361.52 503.82 L 361.93 503.85 L 362.33 503.90 L 362.74 503.96 L 363.14 504.03 L 363.54 504.11 L 363.94 504.21 L 364.33 504.32 L 364.72 504.44 L 365.11 504.58 L 365.49 504.73 L 365.87 504.89 L 366.24 505.06 L 366.60 505.24 L 366.96 505.44 L 367.32 505.64 L 367.66 505.86 L 368.00 506.09 L 368.33 506.33 L 368.66 506.58 L 368.97 506.84 L 369.28 507.12 L 369.57 507.40 L 369.86 507.69 L 370.14 507.99 L 370.41 508.29 L 370.67 508.61 L 370.92 508.94 L 371.16 509.27 L 371.38 509.61 L 371.60 509.96 L 371.81 510.31 L 372.00 510.67 L 372.18 511.04 L 372.35 511.41 L 372.51 511.79 L 372.65 512.17 L 372.79 512.56 L 372.91 512.95 L 373.01 513.34 L 373.11 513.74 L 373.19 514.14 L 373.26 514.54 L 373.32 514.95 L 373.36 515.35 L 373.39 515.76 L 373.41 516.17 L 373.41 516.58 L 373.40 516.99 L 373.38 517.40 L 373.34 517.81 L 373.30 518.21 L 373.23 518.62 L 373.16 519.02 L 373.07 519.42 L 372.97 519.81 L 372.86 520.21 L 372.73 520.60 L 372.59 520.98 L 372.44 521.36 L 372.28 521.74 L 372.14 522.12 L 372.00 522.51 L 371.88 522.90 L 371.78 523.29 L 371.69 523.69 L 371.62 524.10 L 371.56 524.50 L 371.52 524.91 L 371.49 525.32 L 371.48 525.73 L 371.48 526.13 L 371.50 526.54 L 371.54 526.95 L 371.59 527.36 L 371.65 527.76 L 371.73 528.16 L 371.83 528.56 L 371.94 528.95 L 372.07 529.34 L 372.21 529.73 L 372.36 530.11 L 372.53 530.48 L 372.71 530.84 L 372.91 531.20 L 373.12 531.55 L 373.34 531.90 L 373.58 532.23 L 373.83 532.56 L 374.09 532.87 L 374.36 533.18 L 374.65 533.47 L 374.94 533.75 L 375.25 534.03 L 375.56 534.29 L 375.89 534.54 L 376.22 534.77 L 376.56 534.99 L 376.91 535.21 L 377.27 535.40 L 377.64 535.58 L 378.01 535.75 L 378.39 535.91 L 378.77 536.05 L 379.16 536.17 L 379.56 536.29 L 379.95 536.38 L 380.36 536.46 L 380.76 536.53 L 381.17 536.58 L 381.57 536.61 L 381.98 536.63 L 382.39 536.64 L 382.80 536.62 L 383.21 536.60 L 383.61 536.55 L 384.02 536.50 L 384.42 536.42 L 384.82 536.34 L 385.22 536.23 L 385.61 536.11 L 386.00 535.98 L 386.38 535.83 L 386.75 535.67 L 387.13 535.52 L 387.52 535.38 L 387.91 535.26 L 388.30 535.15 L 388.70 535.05 L 389.10 534.96 L 389.50 534.88 L 389.90 534.82 L 390.31 534.77 L 390.72 534.74 L 391.13 534.71 L 391.54 534.70 L 391.94 534.71 L 392.35 534.72 L 392.76 534.75 L 393.17 534.80 L 393.57 534.85 L 393.98 534.92 L 394.38 535.01 L 394.78 535.10 L 395.17 535.21 L 395.56 535.33 L 395.95 535.46 L 396.33 535.61 L 396.71 535.77 L 397.08 535.94 L 397.45 536.12 L 397.81 536.31 L 398.16 536.52 L 398.51 536.73 L 398.85 536.96 L 399.18 537.20 L 399.51 537.45 L 399.82 537.71 L 400.13 537.97 L 400.43 538.25 L 400.72 538.54 L 401.00 538.84 L 401.27 539.15 L 401.53 539.46 L 401.78 539.78 L 402.02 540.12 L 402.25 540.45 L 402.47 540.80 L 402.68 541.15 L 402.87 541.51 L 403.06 541.88 L 403.23 542.25 L 403.39 542.62 L 403.54 543.01 L 403.67 543.39 L 403.80 543.78 L 403.91 544.18 L 404.00 544.57 L 404.09 544.97 L 404.16 545.38 L 404.22 545.78 L 404.27 546.19 L 404.30 546.60 L 404.32 547.00 L 404.32 547.41 L 404.32 547.82 L 404.33 548.23 L 404.36 548.64 L 404.40 549.05 L 404.45 549.45 L 404.52 549.86 L 404.61 550.26 L 404.71 550.65 L 404.83 551.04 L 404.96 551.43 L 405.10 551.81 L 405.27 552.19 L 405.44 552.56 L 405.63 552.92 L 405.83 553.28 L 406.04 553.63 L 406.27 553.97 L 406.51 554.30 L 406.77 554.62 L 407.03 554.93 L 407.31 555.23 L 407.60 555.52 L 407.89 555.80 L 408.20 556.07 L 408.52 556.33 L 408.85 556.57 L 409.19 556.80 L 409.53 557.02 L 409.89 557.22 L 410.25 557.42 L 410.62 557.59 L 410.99 557.76 L 411.37 557.91 L 411.76 558.04 L 412.15 558.16 L 412.55 558.27 L 412.95 558.36 L 413.35 558.43 L 413.75 558.49 L 414.16 558.54 L 414.57 558.57 L 414.98 558.58 L 415.39 558.58 L 415.79 558.56 L 416.20 558.53 L 416.61 558.48 L 417.01 558.41 L 417.41 558.34 L 417.81 558.24 L 418.21 558.13 L 418.60 558.01 L 418.98 557.87 L 419.36 557.72 L 419.73 557.55 L 420.10 557.37 L 420.46 557.17 L 420.81 556.97 L 421.16 556.74 L 421.49 556.51 L 421.82 556.26 L 422.13 556.00 L 422.44 555.73 L 422.74 555.45 L 423.02 555.16 L 423.32 554.87 L 423.62 554.60 L 423.93 554.33 L 424.25 554.08 L 424.58 553.83 L 424.91 553.60 L 425.26 553.38 L 425.61 553.16 L 425.96 552.96 L 426.33 552.78 L 426.70 552.60 L 427.07 552.43 L 427.45 552.28 L 427.83 552.14 L 428.22 552.01 L 428.61 551.90 L 429.01 551.79 L 429.41 551.70 L 429.81 551.62 L 430.22 551.56 L 430.62 551.51 L 431.03 551.47 L 431.44 551.45 L 431.85 551.43 L 432.25 551.43 L 432.66 551.45 L 433.07 551.48 L 433.48 551.52 L 433.88 551.57 L 434.29 551.64 L 434.69 551.72 L 435.09 551.81 L 435.48 551.92 L 435.87 552.03 L 436.26 552.17 L 436.65 552.31 L 437.02 552.46 L 437.40 552.63 L 437.76 552.81 L 438.13 553.00 L 438.48 553.20 L 438.83 553.42 L 439.17 553.64 L 439.51 553.88 L 439.83 554.13 L 440.15 554.38 L 440.46 554.65 L 440.76 554.93 L 441.05 555.21 L 441.34 555.51 L 441.61 555.82 L 441.87 556.13 L 442.12 556.45 L 442.37 556.78 L 442.60 557.12 L 442.82 557.46 L 443.03 557.81 L 443.23 558.17 L 443.41 558.54 L 443.59 558.91 L 443.75 559.28 L 443.90 559.66 L 444.07 560.03 L 444.25 560.40 L 444.44 560.76 L 444.65 561.12 L 444.87 561.46 L 445.10 561.80 L 445.35 562.12 L 445.60 562.44 L 445.87 562.75 L 446.15 563.05 L 446.45 563.33 L 446.75 563.61 L 447.06 563.87 L 447.38 564.12 L 447.72 564.36 L 448.06 564.59 L 448.40 564.80 L 448.76 565.00 L 449.13 565.19 L 449.50 565.36 L 449.87 565.52 L 450.26 565.66 L 450.65 565.79 L 451.04 565.91 L 451.43 566.01 L 451.83 566.09 L 452.24 566.16 L 452.64 566.22 L 453.05 566.25 L 453.46 566.28 L 453.87 566.29 L 454.28 566.28 L 454.69 566.25 L 455.09 566.22 L 455.50 566.16 L 455.90 566.09 L 456.30 566.01 L 456.70 565.91 L 457.09 565.79 L 457.48 565.66 L 457.86 565.52 L 458.24 565.36 L 458.61 565.19 L 458.97 565.00 L 459.33 564.80 L 459.68 564.59 L 460.02 564.36 L 460.35 564.12 L 460.68 563.87 L 460.99 563.61 L 461.29 563.33 L 461.58 563.05 L 461.86 562.75 L 462.13 562.44 L 462.39 562.12 L 462.64 561.80 L 462.87 561.46 L 463.09 561.12 L 463.30 560.76 L 463.49 560.40 L 463.67 560.04 L 463.83 559.66 L 463.99 559.28 L 464.15 558.91 L 464.33 558.54 L 464.51 558.17 L 464.71 557.81 L 464.92 557.46 L 465.14 557.12 L 465.37 556.78 L 465.61 556.45 L 465.87 556.13 L 466.13 555.82 L 466.40 555.51 L 466.68 555.21 L 466.98 554.93 L 467.28 554.65 L 467.59 554.38 L 467.90 554.13 L 468.23 553.88 L 468.56 553.64 L 468.91 553.42 L 469.25 553.20 L 469.61 553.00 L 469.97 552.81 L 470.34 552.63 L 470.71 552.46 L 471.09 552.31 L 471.47 552.17 L 471.86 552.03 L 472.25 551.92 L 472.65 551.81 L 473.05 551.72 L 473.45 551.64 L 473.85 551.57 L 474.26 551.52 L 474.66 551.48 L 475.07 551.45 L 475.48 551.43 L 475.89 551.43 L 476.30 551.45 L 476.71 551.47 L 477.12 551.51 L 477.52 551.56 L 477.93 551.62 L 478.33 551.70 L 478.73 551.79 L 479.12 551.90 L 479.51 552.01 L 479.90 552.14 L 480.29 552.28 L 480.67 552.43 L 481.04 552.60 L 481.41 552.78 L 481.77 552.96 L 482.13 553.16 L 482.48 553.38 L 482.82 553.60 L 483.16 553.83 L 483.49 554.08 L 483.80 554.33 L 484.12 554.60 L 484.42 554.87 L 484.71 555.16 L 485.00 555.45 L 485.30 555.73 L 485.60 556.00 L 485.92 556.26 L 486.25 556.51 L 486.58 556.74 L 486.92 556.97 L 487.28 557.17 L 487.64 557.37 L 488.00 557.55 L 488.38 557.72 L 488.76 557.87 L 489.14 558.01 L 489.53 558.13 L 489.92 558.24 L 490.32 558.34 L 490.72 558.41 L 491.13 558.48 L 491.53 558.53 L 491.94 558.56 L 492.35 558.58 L 492.76 558.58 L 493.17 558.57 L 493.58 558.54 L 493.98 558.49 L 494.39 558.43 L 494.79 558.36 L 495.19 558.27 L 495.58 558.16 L 495.98 558.04 L 496.36 557.91 L 496.74 557.76 L 497.12 557.59 L 497.49 557.42 L 497.85 557.22 L 498.20 557.02 L 498.55 556.80 L 498.89 556.57 L 499.21 556.33 L 499.53 556.07 L 499.84 555.80 L 500.14 555.52 L 500.43 555.23 L 500.70 554.93 L 500.97 554.62 L 501.22 554.30 L 501.46 553.97 L 501.69 553.63 L 501.91 553.28 L 502.11 552.92 L 502.30 552.56 L 502.47 552.19 L 502.63 551.81 L 502.78 551.43 L 502.91 551.04 L 503.02 550.65 L 503.13 550.26 L 503.21 549.86 L 503.28 549.45 L 503.34 549.05 L 503.38 548.64 L 503.41 548.23 L 503.42 547.82 L 503.41 547.41 L 503.42 547.00 L 503.44 546.60 L 503.47 546.19 L 503.52 545.78 L 503.58 545.38 L 503.65 544.97 L 503.73 544.57 L 503.83 544.18 L 503.94 543.78 L 504.06 543.39 L 504.20 543.01 L 504.35 542.63 L 504.51 542.25 L 504.68 541.88 L 504.86 541.51 L 505.06 541.15 L 505.27 540.80 L 505.48 540.45 L 505.71 540.12 L 505.95 539.78 L 506.20 539.46 L 506.46 539.15 L 506.74 538.84 L 507.02 538.54 L 507.31 538.25 L 507.61 537.97 L 507.91 537.71 L 508.23 537.45 L 508.56 537.20 L 508.89 536.96 L 509.23 536.73 L 509.58 536.52 L 509.93 536.31 L 510.29 536.12 L 510.66 535.94 L 511.03 535.77 L 511.41 535.61 L 511.79 535.46 L 512.18 535.33 L 512.57 535.21 L 512.96 535.10 L 513.36 535.01 L 513.76 534.92 L 514.16 534.85 L 514.57 534.80 L 514.97 534.76 L 515.38 534.73 L 515.79 534.71 L 516.20 534.70 L 516.61 534.71 L 517.02 534.74 L 517.43 534.77 L 517.83 534.82 L 518.24 534.88 L 518.64 534.96 L 519.04 535.05 L 519.43 535.15 L 519.83 535.26 L 520.22 535.38 L 520.60 535.52 L 520.98 535.67 L 521.36 535.83 L 521.74 535.98 L 522.13 536.11 L 522.52 536.23 L 522.91 536.34 L 523.31 536.42 L 523.72 536.50 L 524.12 536.55 L 524.53 536.60 L 524.94 536.62 L 525.35 536.64 L 525.75 536.63 L 526.16 536.61 L 526.57 536.58 L 526.98 536.53 L 527.38 536.46 L 527.78 536.38 L 528.18 536.29 L 528.57 536.17 L 528.96 536.05 L 529.35 535.91 L 529.73 535.75 L 530.10 535.58 L 530.46 535.40 L 530.82 535.21 L 531.17 534.99 L 531.52 534.77 L 531.85 534.54 L 532.18 534.29 L 532.49 534.03 L 532.80 533.75 L 533.09 533.47 L 533.37 533.18 L 533.65 532.87 L 533.91 532.56 L 534.16 532.23 L 534.39 531.90 L 534.62 531.55 L 534.83 531.20 L 535.02 530.84 L 535.21 530.48 L 535.37 530.11 L 535.53 529.73 L 535.67 529.34 L 535.79 528.95 L 535.91 528.56 L 536.00 528.16 L 536.08 527.76 L 536.15 527.36 L 536.20 526.95 L 536.23 526.54 L 536.25 526.13 L 536.26 525.73 L 536.24 525.32 L 536.22 524.91 L 536.18 524.50 L 536.12 524.10 L 536.04 523.69 L 535.96 523.29 L 535.85 522.90 L 535.73 522.51 L 535.60 522.12 L 535.45 521.74 L 535.29 521.36 L 535.14 520.98 L 535.01 520.60 L 534.88 520.21 L 534.77 519.81 L 534.67 519.42 L 534.58 519.02 L 534.50 518.62 L 534.44 518.21 L 534.39 517.81 L 534.36 517.40 L 534.33 516.99 L 534.32 516.58 L 534.33 516.17 L 534.35 515.76 L 534.38 515.35 L 534.42 514.95 L 534.47 514.54 L 534.54 514.14 L 534.63 513.74 L 534.72 513.34 L 534.83 512.95 L 534.95 512.56 L 535.08 512.17 L 535.23 511.79 L 535.39 511.41 L 535.56 511.04 L 535.74 510.67 L 535.93 510.31 L 536.14 509.96 L 536.35 509.61 L 536.58 509.27 L 536.82 508.93 L 537.07 508.61 L 537.33 508.29 L 537.59 507.99 L 537.87 507.69 L 538.16 507.40 L 538.46 507.12 L 538.77 506.84 L 539.08 506.58 L 539.40 506.33 L 539.74 506.09 L 540.07 505.86 L 540.42 505.64 L 540.77 505.44 L 541.13 505.24 L 541.50 505.06 L 541.87 504.89 L 542.25 504.73 L 542.63 504.58 L 543.01 504.44 L 543.40 504.32 L 543.80 504.21 L 544.19 504.11 L 544.59 504.03 L 545.00 503.96 L 545.40 503.90 L 545.81 503.85 L 546.22 503.82 L 546.63 503.80 L 547.03 503.79 L 547.44 503.80 L 547.85 503.79 L 548.26 503.76 L 548.67 503.72 L 549.07 503.66 L 549.48 503.59 L 549.88 503.51 L 550.27 503.40 L 550.66 503.29 L 551.05 503.16 L 551.43 503.01 L 551.81 502.85 L 552.18 502.68 L 552.54 502.49 L 552.90 502.29 L 553.25 502.07 L 553.59 501.84 L 553.92 501.60 L 554.24 501.35 L 554.55 501.08 L 554.85 500.81 L 555.14 500.52 L 555.42 500.22 L 555.69 499.91 L 555.95 499.59 L 556.19 499.26 L 556.42 498.93 L 556.64 498.58 L 556.84 498.23 L 557.04 497.87 L 557.21 497.50 L 557.38 497.12 L 557.53 496.74 L 557.66 496.36 L 557.78 495.96 L 557.89 495.57 L 557.98 495.17 L 558.05 494.77 L 558.11 494.36 L 558.16 493.96 L 558.19 493.55 L 558.20 493.14 L 558.20 492.73 L 558.18 492.32 L 558.15 491.91 L 558.10 491.51 L 558.04 491.10 L 557.96 490.70 L 557.86 490.30 L 557.75 489.91 L 557.63 489.52 L 557.49 489.14 L 557.34 488.76 L 557.17 488.38 L 556.99 488.02 L 556.79 487.66 L 556.59 487.30 L 556.36 486.96 L 556.13 486.62 L 555.88 486.30 L 555.62 485.98 L 555.35 485.68 L 555.07 485.38 L 554.78 485.09 L 554.49 484.80 L 554.22 484.50 L 553.95 484.18 L 553.70 483.86 L 553.45 483.54 L 553.22 483.20 L 553.00 482.86 L 552.79 482.51 L 552.58 482.15 L 552.40 481.79 L 552.22 481.42 L 552.05 481.05 L 551.90 480.67 L 551.76 480.28 L 551.63 479.89 L 551.52 479.50 L 551.41 479.11 L 551.32 478.71 L 551.25 478.30 L 551.18 477.90 L 551.13 477.50 L 551.09 477.09 L 551.07 476.68 L 551.05 476.27 L 551.06 475.86 L 551.07 475.45 L 551.10 475.04 L 551.14 474.64 L 551.19 474.23 L 551.26 473.83 L 551.34 473.43 L 551.43 473.03 L 551.54 472.63 L 551.66 472.24 L 551.79 471.85 L 551.93 471.47 L 552.08 471.09 L 552.25 470.72 L 552.43 470.35 L 552.62 469.99 L 552.83 469.63 L 553.04 469.29 L 553.26 468.94 L 553.50 468.61 L 553.75 468.28 L 554.00 467.97 L 554.27 467.66 L 554.55 467.35 L 554.84 467.06 L 555.13 466.78 L 555.44 466.51 L 555.75 466.24 L 556.07 465.99 L 556.40 465.75 L 556.74 465.52 L 557.08 465.30 L 557.43 465.09 L 557.79 464.89 L 558.16 464.70 L 558.53 464.53 L 558.90 464.37 L 559.28 464.21 L 559.66 464.05 L 560.02 463.87 L 560.38 463.68 L 560.74 463.47 L 561.08 463.25 L 561.42 463.02 L 561.75 462.77 L 562.06 462.51 L 562.37 462.24 L 562.67 461.96 L 562.95 461.67 L 563.23 461.37 L 563.49 461.06 L 563.74 460.73 L 563.98 460.40 L 564.21 460.06 L 564.42 459.71 L 564.62 459.35 L 564.81 458.99 L 564.98 458.62 L 565.14 458.24 L 565.29 457.86 L 565.41 457.47 L 565.53 457.08 L 565.63 456.68 L 565.71 456.28 L 565.78 455.88 L 565.84 455.47 L 565.88 455.07 L 565.90 454.66 L 565.91 454.25 L 565.90 453.84 L 565.88 453.43 L 565.84 453.02 L 565.78 452.62 L 565.71 452.21 L 565.63 451.81 L 565.53 451.42 L 565.41 451.02 L 565.29 450.64 L 565.14 450.25 L 564.98 449.88 L 564.81 449.51 L 564.62 449.14 L 564.42 448.78 L 564.21 448.44 L 563.98 448.09 L 563.74 447.76 L 563.49 447.44 L 563.23 447.13 L 562.95 446.82 L 562.67 446.53 L 562.37 446.25 L 562.06 445.98 L 561.75 445.72 L 561.42 445.48 L 561.08 445.25 L 560.74 445.03 L 560.38 444.82 L 560.02 444.63 L 559.66 444.45 L 559.28 444.28 L 558.90 444.13 L 558.53 443.97 L 558.16 443.79 L 557.79 443.60 L 557.43 443.41 L 557.08 443.20 L 556.74 442.98 L 556.40 442.75 L 556.07 442.50 L 555.75 442.25 L 555.44 441.99 L 555.13 441.71 L 554.84 441.43 L 554.55 441.14 L 554.27 440.84 L 554.00 440.53 L 553.75 440.21 L 553.50 439.89 L 553.26 439.55 L 553.04 439.21 L 552.83 438.86 L 552.62 438.51 L 552.43 438.14 L 552.25 437.78 L 552.08 437.40 L 551.93 437.02 L 551.79 436.64 L 551.66 436.25 L 551.54 435.86 L 551.43 435.47 L 551.34 435.07 L 551.26 434.67 L 551.19 434.26 L 551.14 433.86 L 551.10 433.45 L 551.07 433.04 L 551.06 432.63 L 551.05 432.22 L 551.07 431.82 L 551.09 431.41 L 551.13 431.00 L 551.18 430.59 L 551.25 430.19 L 551.32 429.79 L 551.41 429.39 L 551.52 428.99 L 551.63 428.60 L 551.76 428.21 L 551.90 427.83 L 552.05 427.45 L 552.22 427.08 L 552.40 426.71 L 552.59 426.34 L 552.79 425.99 L 553.00 425.64 L 553.22 425.29 L 553.45 424.96 L 553.70 424.63 L 553.95 424.31 L 554.22 424.00 L 554.50 423.70 L 554.78 423.40 L 555.07 423.12 L 555.35 422.82 L 555.62 422.51 L 555.88 422.20 L 556.13 421.87 L 556.36 421.54 L 556.59 421.19 L 556.79 420.84 L 556.99 420.48 L 557.17 420.11 L 557.34 419.74 L 557.49 419.36 L 557.63 418.98 L 557.75 418.59 L 557.86 418.19 L 557.96 417.79 L 558.04 417.39 L 558.10 416.99 L 558.15 416.58 L 558.18 416.17 L 558.20 415.76 L 558.20 415.36 L 558.19 414.95 L 558.16 414.54 L 558.11 414.13 L 558.05 413.73 L 557.98 413.33 L 557.89 412.93 L 557.78 412.53 L 557.66 412.14 L 557.53 411.75 L 557.38 411.37 L 557.21 411.00 L 557.04 410.63 L 556.84 410.27 L 556.64 409.91 L 556.42 409.57 L 556.19 409.23 L 555.95 408.90 L 555.69 408.58 L 555.42 408.27 L 555.14 407.98 L 554.85 407.69 L 554.55 407.41 L 554.24 407.15 L 553.92 406.89 L 553.59 406.65 L 553.25 406.42 L 552.90 406.21 L 552.54 406.01 L 552.18 405.82 L 551.81 405.64 L 551.43 405.48 L 551.05 405.34 L 550.66 405.21 L 550.27 405.09 L 549.87 404.99 L 549.47 404.90 L 549.07 404.83 L 548.67 404.78 L 548.26 404.74 L 547.85 404.71 L 547.44 404.70 L 547.03 404.70 L 546.62 404.70 L 546.22 404.68 L 545.81 404.65 L 545.40 404.60 L 545.00 404.54 L 544.59 404.47 L 544.19 404.38 L 543.80 404.29 L 543.40 404.18 L 543.01 404.05 L 542.63 403.92 L 542.24 403.77 L 541.87 403.61 L 541.50 403.44 L 541.13 403.25 L 540.77 403.06 L 540.42 402.85 L 540.07 402.63 L 539.73 402.40 L 539.40 402.16 L 539.08 401.91 L 538.77 401.65 L 538.46 401.38 L 538.16 401.10 L 537.87 400.81 L 537.59 400.51 L 537.33 400.20 L 537.07 399.89 L 536.82 399.56 L 536.58 399.23 L 536.35 398.89 L 536.14 398.54 L 535.93 398.19 L 535.74 397.83 L 535.56 397.46 L 535.39 397.09 L 535.23 396.71 L 535.08 396.33 L 534.95 395.94 L 534.83 395.55 L 534.72 395.15 L 534.63 394.76 L 534.54 394.36 L 534.47 393.95 L 534.42 393.55 L 534.38 393.14 L 534.34 392.73 L 534.33 392.32 L 534.32 391.92 L 534.33 391.51 L 534.36 391.10 L 534.39 390.69 L 534.44 390.28 L 534.50 389.88 L 534.58 389.48 L 534.67 389.08 L 534.77 388.68 L 534.88 388.29 L 535.01 387.90 L 535.14 387.51 L 535.29 387.13 L 535.45 386.76 L 535.60 386.38 L 535.73 385.99 L 535.85 385.60 L 535.96 385.20 L 536.04 384.80 L 536.12 384.40 L 536.18 383.99 L 536.22 383.59 L 536.24 383.18 L 536.26 382.77 L 536.25 382.36 L 536.23 381.95 L 536.20 381.54 L 536.15 381.14 L 536.08 380.74 L 536.00 380.33 L 535.91 379.94 L 535.79 379.54 L 535.67 379.15 L 535.53 378.77 L 535.37 378.39 L 535.21 378.02 L 535.02 377.65 L 534.83 377.29 L 534.62 376.94 L 534.39 376.60 L 534.16 376.27 L 533.91 375.94 L 533.65 375.63 L 533.37 375.32 L 533.09 375.03 L 532.80 374.74 L 532.49 374.47 L 532.18 374.21 L 531.85 373.96 L 531.52 373.72 L 531.17 373.50 L 530.82 373.29 L 530.46 373.09 L 530.10 372.91 L 529.73 372.74 L 529.35 372.59 L 528.96 372.45 L 528.57 372.32 L 528.18 372.21 L 527.78 372.11 L 527.38 372.03 L 526.98 371.97 L 526.57 371.92 L 526.16 371.88 L 525.75 371.86 L 525.35 371.86 L 524.94 371.87 L 524.53 371.90 L 524.12 371.94 L 523.72 372.00 L 523.31 372.07 L 522.91 372.16 L 522.52 372.26 L 522.13 372.38 L 521.74 372.52 L 521.36 372.66 L 520.98 372.82 L 520.60 372.97 L 520.22 373.11 L 519.83 373.24 L 519.43 373.35 L 519.04 373.45 L 518.64 373.54 L 518.24 373.61 L 517.83 373.68 L 517.43 373.72 L 517.02 373.76 L 516.61 373.78 L 516.20 373.79 L 515.79 373.79 L 515.38 373.77 L 514.97 373.74 L 514.57 373.70 L 514.16 373.64 L 513.76 373.57 L 513.36 373.49 L 512.96 373.39 L 512.57 373.29 L 512.18 373.17 L 511.79 373.03 L 511.41 372.89 L 511.03 372.73 L 510.66 372.56 L 510.29 372.38 L 509.93 372.18 L 509.58 371.98 L 509.23 371.76 L 508.89 371.54 L 508.56 371.30 L 508.23 371.05 L 507.91 370.79 L 507.61 370.52 L 507.31 370.24 L 507.02 369.95 L 506.74 369.66 L 506.46 369.35 L 506.20 369.03 L 505.95 368.71 L 505.71 368.38 L 505.48 368.04 L 505.27 367.70 L 505.06 367.34 L 504.86 366.98 L 504.68 366.62 L 504.51 366.25 L 504.35 365.87 L 504.20 365.49 L 504.06 365.10 L 503.94 364.71 L 503.83 364.32 L 503.73 363.92 L 503.65 363.52 L 503.58 363.12 L 503.52 362.71 L 503.47 362.31 L 503.44 361.90 L 503.42 361.49 L 503.41 361.08 L 503.42 360.67 L 503.41 360.26 L 503.38 359.86 L 503.34 359.45 L 503.28 359.04 L 503.21 358.64 L 503.13 358.24 L 503.03 357.84 L 502.91 357.45 L 502.78 357.06 L 502.63 356.68 L 502.47 356.31 L 502.30 355.94 L 502.11 355.57 L 501.91 355.22 L 501.69 354.87 L 501.46 354.53 L 501.22 354.20 L 500.97 353.88 L 500.71 353.57 L 500.43 353.26 L 500.14 352.97 L 499.84 352.69 L 499.53 352.43 L 499.21 352.17 L 498.89 351.93 L 498.55 351.69 L 498.20 351.48 L 497.85 351.27 L 497.49 351.08 L 497.12 350.90 L 496.74 350.74 L 496.36 350.59 L 495.98 350.45 L 495.58 350.33 L 495.19 350.23 L 494.79 350.14 L 494.39 350.06 L 493.98 350.00 L 493.58 349.96 L 493.17 349.93 L 492.76 349.92 L 492.35 349.92 L 491.94 349.94 L 491.53 349.97 L 491.13 350.02 L 490.72 350.08 L 490.32 350.16 L 489.92 350.25 L 489.53 350.36 L 489.14 350.49 L 488.76 350.63 L 488.38 350.78 L 488.00 350.95 L 487.64 351.13 L 487.28 351.32 L 486.92 351.53 L 486.58 351.75 L 486.25 351.99 L 485.92 352.23 L 485.60 352.49 L 485.30 352.76 L 485.00 353.05 L 484.71 353.34 L 484.42 353.62 L 484.12 353.90 L 483.81 354.16 L 483.49 354.42 L 483.16 354.66 L 482.82 354.90 L 482.48 355.12 L 482.13 355.33 L 481.77 355.53 L 481.41 355.72 L 481.04 355.90 L 480.67 356.06 L 480.29 356.22 L 479.90 356.36 L 479.51 356.48 L 479.12 356.60 L 478.73 356.70 L 478.33 356.79 L 477.93 356.87 L 477.52 356.94 L 477.12 356.99 L 476.71 357.03 L 476.30 357.05 L 475.89 357.06 L 475.48 357.06 L 475.07 357.05 L 474.67 357.02 L 474.26 356.98 L 473.85 356.92 L 473.45 356.86 L 473.05 356.78 L 472.65 356.68 L 472.25 356.58 L 471.86 356.46 L 471.47 356.33 L 471.09 356.19 L 470.71 356.03 L 470.34 355.86 L 469.97 355.68 L 469.61 355.49 L 469.26 355.29 L 468.91 355.08 L 468.56 354.85 L 468.23 354.62 L 467.90 354.37 L 467.59 354.11 L 467.28 353.84 L 466.98 353.57 L 466.68 353.28 L 466.40 352.99 L 466.13 352.68 L 465.87 352.37 L 465.61 352.05 L 465.37 351.72 L 465.14 351.38 L 464.92 351.03 L 464.71 350.68 L 464.51 350.32 L 464.33 349.96 L 464.15 349.59 L 463.99 349.21 L 463.83 348.84 L 463.67 348.46 L 463.49 348.09 L 463.30 347.73 L 463.09 347.38 L 462.87 347.04 L 462.64 346.70 L 462.39 346.37 L 462.13 346.05 L 461.86 345.75 L 461.58 345.45 L 461.29 345.16 L 460.99 344.89 L 460.68 344.62 L 460.35 344.37 L 460.02 344.13 L 459.68 343.91 L 459.33 343.69 L 458.97 343.49 L 458.61 343.31 L 458.24 343.13 L 457.86 342.98 L 457.48 342.83 L 457.09 342.70 L 456.70 342.59 L 456.30 342.49 L 455.90 342.40 L 455.50 342.33 L 455.09 342.28 L 454.69 342.24 L 454.28 342.22 z"
 style="fill:#138013; fill-opacity:0.38; fill-rule:evenodd; stroke:#003300; stroke-opacity:1.00; stroke-width:0.00;" filter="url(#Gamma)"/>

</svg>
